<?xml version="1.0" encoding="UTF-8" standalone="no"?>
<!-- Generator: Adobe Illustrator 27.5.0, SVG Export Plug-In . SVG Version: 6.00 Build 0)  -->

<svg
   version="1.1"
   id="Layer_1"
   x="0px"
   y="0px"
   viewBox="0 0 1000 1000"
   xml:space="preserve"
   sodipodi:docname="marigold.svg"
   width="1000"
   height="1000"
   inkscape:version="1.4.2 (ebf0e940, 2025-05-08)"
   xmlns:inkscape="http://www.inkscape.org/namespaces/inkscape"
   xmlns:sodipodi="http://sodipodi.sourceforge.net/DTD/sodipodi-0.dtd"
   xmlns="http://www.w3.org/2000/svg"
   xmlns:svg="http://www.w3.org/2000/svg"><defs
   id="defs123" /><sodipodi:namedview
   id="namedview123"
   pagecolor="#ffffff"
   bordercolor="#000000"
   borderopacity="0.25"
   inkscape:showpageshadow="2"
   inkscape:pageopacity="0.0"
   inkscape:pagecheckerboard="0"
   inkscape:deskcolor="#d1d1d1"
   inkscape:zoom="0.2411075"
   inkscape:cx="785.95649"
   inkscape:cy="864.75951"
   inkscape:window-width="1360"
   inkscape:window-height="680"
   inkscape:window-x="0"
   inkscape:window-y="25"
   inkscape:window-maximized="0"
   inkscape:current-layer="Layer_1" />
<g
   id="g123"
   style="display:inline">
	
	<g
   id="g122"
   transform="matrix(0.56870106,0,0,0.56870106,-308.49861,-340.76405)"
   style="display:inline">
		<path
   style="fill:#5e8b17"
   d="m 1539.823,2048.502 c -4.085,0.961 -8.154,1.86 -12.112,3.274 3.219,1.55 6.096,1.709 9.418,2.655 -4.244,-0.072 -12.438,-1.049 -15.744,2.074 -1.415,1.343 -2.154,3.648 -2.901,5.428 -13.335,19.464 -23.638,41.584 -35.62,61.966 -15.116,25.726 -61.553,101.958 -89.997,108.483 -13.173,3.042 -20.38,-10.744 -30.502,-16.348 31.933,-47.7 60.162,-94.535 77.241,-149.881 15.513,-11.794 28.142,-23.461 39.245,-39.586 19.606,-32.648 19.781,-67.085 28.881,-102.467 2.686,-2.329 6.207,-1.939 9.696,-2.297 l 6.891,0.072 c 5.372,17.54 10.133,39.316 20.02,54.829 2.329,5.349 6.135,11.302 7.614,16.817 -7.328,20.187 -19.09,37.679 -27.633,57.126 l 4.403,-2.869 z"
   id="path1" />
		<path
   style="fill:#feb918"
   d="m 871.332,1594.204 c -23.749,42.387 -12.889,67.881 30.421,87.487 14.036,6.899 27.952,10.74 33.358,27.147 5.612,17.164 -1.306,35.192 1.852,52.633 3.752,19.653 24.167,33.635 40.534,42.219 4.736,2.485 9.715,5.015 15.209,4 2.187,-2.164 2.1,-7.05 2.578,-10.13 0.157,11.848 -0.244,23.827 1.371,35.594 l -0.871,2.006 4.834,4.778 c -22.147,18.785 -61.262,23.708 -89.086,17.897 -52.643,-11.735 -43.376,-61.824 -65.191,-92.762 -12.395,-17.576 -32.803,-27.611 -44.102,-46.036 -23.785,-38.469 13.655,-90.891 46.48,-111.534 6.748,-5.722 14.624,-9.654 22.613,-13.299 z"
   id="path2" />
		<path
   style="fill:#f87c08"
   d="m 871.332,1594.204 c -23.749,42.387 -12.889,67.881 30.421,87.487 14.036,6.899 27.952,10.74 33.358,27.147 5.612,17.164 -1.306,35.192 1.852,52.633 3.752,19.653 24.167,33.635 40.534,42.219 4.736,2.485 9.715,5.015 15.209,4 2.187,-2.164 2.1,-7.05 2.578,-10.13 0.157,11.848 -0.244,23.827 1.371,35.594 l -0.871,2.006 c -24.771,2.314 -50.707,-3.826 -71.03,-18.506 -30.93,-22.34 -25.384,-40.307 -30.9,-72.149 -4.764,-27.492 -29.896,-34.425 -49.8,-48.489 -9.155,-6.468 -18.388,-15.077 -20.188,-26.678 -3.295,-21.233 12.634,-45.505 24.854,-61.835 6.747,-5.722 14.623,-9.654 22.612,-13.299 z"
   id="path3" />
		<path
   style="fill:#f87c08"
   d="m 2139.66,1588.292 c 6.378,2.167 26.899,18.595 27.94,25.812 11.766,4.801 22.073,25.556 26.745,36.79 7.668,18.403 14.762,44.343 6.675,63.39 -9.934,23.397 -36.338,34.72 -51.488,54.108 -6.768,8.68 -7.948,20.202 -10.571,30.619 -6.116,24.255 -19.837,47.073 -43.928,56.608 -47.124,17.162 -103.545,-8.816 -144.995,-31.057 -11.238,-6.542 -23.842,-16.163 -36.276,-19.867 2.577,-2.324 6.287,-3.766 9.376,-5.329 1.956,-0.545 3.71,-1.49 5.526,-2.395 34.022,-13.623 63.35,-45.634 63.114,-83.732 0.078,-19.867 -8.863,-51.531 -23.407,-66.12 8.428,-0.011 18.642,3.48 27.009,5.082 33.513,6.411 71.17,11.626 101.749,-7.396 19.232,-11.964 37.377,-34.178 42.531,-56.513 z"
   id="path4" />
		<path
   style="fill:#e65404"
   d="m 2166.094,1621.204 c 6.799,6.768 7.373,22.138 7.435,31.108 0.717,49.521 -42.251,53.642 -64.061,87.73 -5.742,9.596 -6.565,21.702 -8.179,32.531 -5.417,36.33 -21.7,50.486 -59.156,49.909 -22.818,-0.351 -101.842,-11.189 -118.994,-23.116 1.956,-0.545 3.71,-1.49 5.526,-2.395 12.821,5.06 33.094,6.092 47.002,5.964 32.038,-0.297 56.734,-14.386 66.793,-45.822 3.927,-12.286 5.448,-29.05 15.848,-37.935 9.065,-7.755 23.563,-9.739 34.413,-14.479 14.374,-6.28 28.561,-17.987 39.458,-29.244 10.321,-10.66 34.117,-39.721 33.915,-54.251 z"
   id="path5" />
		<path
   style="fill:#ce2902"
   d="m 2139.66,1588.292 c 6.378,2.167 26.899,18.595 27.94,25.812 0.326,3.466 0.093,3.981 -1.506,7.1 0.202,14.53 -23.594,43.591 -33.917,54.251 -10.896,11.257 -25.084,22.964 -39.458,29.244 -10.85,4.741 -25.348,6.724 -34.413,14.479 -10.4,8.885 -11.921,25.649 -15.848,37.935 -10.058,31.436 -34.755,45.525 -66.793,45.822 -13.908,0.129 -34.18,-0.903 -47.002,-5.964 34.022,-13.623 63.35,-45.634 63.114,-83.732 0.078,-19.867 -8.863,-51.531 -23.407,-66.12 8.428,-0.011 18.642,3.48 27.009,5.082 33.513,6.411 71.17,11.626 101.749,-7.396 19.233,-11.964 37.378,-34.178 42.532,-56.513 z"
   id="path6" />
		<path
   style="fill:#fd9508"
   d="m 1517.427,1921.803 c -3.489,0.358 -7.01,-0.032 -9.696,2.297 -9.1,35.382 -9.275,69.818 -28.881,102.467 -11.103,16.125 -23.731,27.792 -39.245,39.586 -6.469,1.955 -12.676,5.452 -19.225,7.558 -26.545,8.543 -52.74,5.436 -77.361,-7.185 -5.492,-2.813 -10.34,-6.7 -15.879,-9.442 -13.662,-6.771 -28.396,2.694 -41.279,7.065 -25.559,8.671 -46.23,2.496 -62.912,-18.844 -7.089,-9.068 -13.352,-19.702 -22.022,-27.355 -7.518,-6.652 -16.3,-9.187 -25.058,-13.566 -12.7,-6.342 -17.262,-18.828 -21.434,-31.631 -1.147,-8.937 -1.083,-18.025 0.222,-26.942 -1.095,12.041 5.418,15.109 15.823,17.929 7.534,-1.772 16.586,-4.888 24.303,-4.673 10.427,0.286 20.846,5.802 30.328,9.744 26.934,11.19 50.927,4.482 72.091,-14.933 3.545,-5.857 8.432,-11.46 12.43,-17.087 8.496,-11.969 16.284,-24.224 22.952,-37.313 9.99,-19.622 16.602,-51.015 31.742,-66.131 5.484,-5.476 10.673,-5.77 17.945,-5.762 -3.072,73.922 44.043,91.012 108.634,93.852 8.735,0.072 17.827,-0.333 26.522,0.366 z"
   id="path7" />
		<path
   style="fill:#f46a03"
   d="m 1297.2,1953.881 c 18.847,-8.618 39.514,-19.064 60.477,-11.063 36.681,14 42.064,83.189 91.793,61.61 9.065,-3.933 16.43,-9.729 23.884,-16.092 -8.955,20.135 -18.391,39.877 -40.521,47.922 -21.509,7.819 -48.411,2.339 -67.825,-8.826 -11.561,-6.65 -21.103,-15.204 -34.959,-16.235 -22.868,-1.701 -41.047,13.14 -64.539,3.696 -20.573,-8.27 -28.392,-33.1 -50.687,-39.006 -21.064,-5.582 -39.68,6.533 -60.39,-3.129 -1.151,-8.941 -1.074,-18.028 0.224,-26.948 -1.092,12.044 5.414,15.112 15.825,17.933 7.53,-1.773 16.581,-4.891 24.305,-4.677 10.426,0.289 20.847,5.804 30.324,9.743 26.938,11.197 50.926,4.489 72.089,-14.928 z"
   id="path8" />
		<path
   style="fill:#ce2902"
   d="m 1297.2,1953.881 c 3.55,-5.861 8.435,-11.463 12.432,-17.092 8.497,-11.968 16.283,-24.223 22.95,-37.31 9.995,-19.622 16.601,-51.016 31.745,-66.131 5.487,-5.478 10.676,-5.77 17.948,-5.763 -3.078,73.925 44.045,91.011 108.632,93.851 -3.46,22.701 -7.601,45.997 -17.553,66.9 -7.454,6.363 -14.819,12.159 -23.884,16.092 -49.729,21.579 -55.112,-47.61 -91.793,-61.61 -20.963,-8.001 -41.63,2.446 -60.477,11.063 z"
   id="path9" />
		<path
   style="fill:#88ae31"
   d="m 2071.674,2223.401 -0.063,1.518 c -4.951,0.413 -9.823,-0.882 -14.655,-1.836 -15.068,0.374 -30.455,-2.734 -45.714,-2.623 -130.478,3.402 -254.709,-2.162 -368.674,-75.432 -37.894,-25.008 -79.689,-76.222 -124.084,-83.096 0.747,-1.78 1.486,-4.085 2.901,-5.428 3.306,-3.123 11.5,-2.146 15.744,-2.074 -3.322,-0.946 -6.199,-1.105 -9.418,-2.655 3.958,-1.415 8.027,-2.313 12.112,-3.274 l -11.103,-0.723 c 11.603,-11.397 24.844,-21.8 38.982,-29.859 10.093,11.993 20.735,23.978 33.737,32.903 17.521,9.58 34.507,11.8 53.192,3.584 33.626,-18.208 48.813,-34.365 89.679,-25.217 16.03,3.592 29.644,-6.048 42.59,-14.297 122.844,21.984 207.691,97.217 277.565,197.162 1.708,2.59 4.283,5.705 4.085,8.94 z"
   id="path10" />
		<path
   style="fill:#5e8b17"
   d="m 2071.674,2223.401 -0.063,1.518 c -4.951,0.413 -9.823,-0.882 -14.655,-1.836 l -0.652,-1.916 c -19.694,-14.933 -49.624,-25.718 -72.457,-36.002 -38.792,-17.469 -78.123,-36.789 -118.64,-49.791 8.464,13.193 17.731,25.79 27.784,37.806 7.796,9.275 16.952,18.478 23.858,28.38 0.874,1.256 1.136,2.957 1.271,4.442 -9.298,-9.99 -24.645,-15.887 -34.953,-26.282 -15.275,-15.402 -26.322,-34.405 -41.215,-49.823 -12.239,-12.685 -81.374,-31.337 -101.704,-36.59 19.392,28.412 45.149,52.421 63.961,81.135 -38.99,-21.482 -64.073,-56.021 -93.502,-87.994 -24.844,-7.471 -50.252,-12.454 -75.843,-16.483 18.359,26.147 40.667,49.306 55.37,77.965 -32.958,-25.361 -58.469,-54.218 -85.26,-85.65 -22.825,-4.244 -44.768,-6.072 -67.847,-7.852 -3.322,-0.946 -6.199,-1.105 -9.418,-2.655 3.958,-1.415 8.027,-2.313 12.112,-3.274 l -11.103,-0.723 c 11.603,-11.397 24.844,-21.8 38.982,-29.859 10.093,11.993 20.735,23.978 33.737,32.903 17.521,9.58 34.507,11.8 53.192,3.584 24.28,3.1 51.007,8.17 74.356,15.641 34.778,-13.375 80.865,-25.869 117.273,-12.366 l 0.54,1.009 c -6.382,2.631 -13.733,2.043 -20.48,3.163 -21.808,3.632 -43.711,8.456 -64.112,17.198 24.486,8.297 51.881,18.47 76.486,25.281 27.35,-6.561 65.577,-8.108 90.593,7.407 -22.849,0.811 -45.324,-1.375 -68.285,0.127 48.859,19.785 99.199,39.327 144.31,66.958 10.491,6.397 57.373,41.247 63.238,42.169 z"
   id="path11" />
		<path
   style="fill:#88ae31"
   d="m 1786.904,2014.889 c 122.844,21.984 207.678,97.223 277.566,197.161 1.708,2.593 4.284,5.709 4.083,8.94 -5.867,-0.92 -52.745,-35.77 -63.238,-42.163 -45.111,-27.632 -95.444,-47.171 -144.311,-66.96 22.958,-1.5 45.434,0.68 68.283,-0.124 -25.015,-15.519 -63.24,-13.969 -90.59,-7.412 -24.606,-6.811 -52.001,-16.985 -76.49,-25.275 20.407,-8.744 42.303,-13.567 64.115,-17.2 6.749,-1.125 14.102,-0.535 20.483,-3.164 l -0.546,-1.01 c -36.405,-13.503 -82.49,-1.01 -117.273,12.364 -23.35,-7.465 -50.072,-12.537 -74.352,-15.64 33.624,-18.203 48.81,-34.363 89.68,-25.213 16.026,3.587 29.644,-6.049 42.59,-14.304 z"
   id="path12" />
		<path
   style="fill:#fd9508"
   d="m 873.74,1591.031 c 18.933,14.296 17.942,22.854 29.822,40.771 22.029,33.227 79.878,31.861 115.011,26.958 48.273,-6.735 93.725,-28.105 136.145,-51.326 3.592,-1.782 6.515,-2.926 10.518,-3.589 -26.385,32.234 -38.589,87.814 -0.449,116.164 10.908,8.037 24.573,10.011 35.857,16.992 10.395,6.429 16.561,17.683 27.304,23.496 23.908,12.938 48.431,-4.132 72.48,1.529 17.882,4.21 29.998,18.749 46.797,25.151 l 4.911,1.132 c 12.648,2.375 24.353,1.206 36.752,-1.954 -2.907,13.705 -5.332,27.271 -6.613,41.232 -7.272,-0.01 -12.461,0.286 -17.948,5.763 -15.144,15.116 -21.75,46.51 -31.745,66.131 -6.667,13.087 -14.453,25.342 -22.95,37.31 -3.997,5.629 -8.882,11.23 -12.432,17.092 -21.163,19.417 -45.151,26.124 -72.089,14.928 -9.478,-3.94 -19.898,-9.455 -30.324,-9.743 -7.724,-0.214 -16.775,2.904 -24.305,4.677 -10.428,-2.825 -16.915,-5.897 -15.825,-17.933 1.546,-9.739 5.031,-18.29 9.175,-27.144 -12.749,6.752 -26.346,14.572 -41.322,12.079 -24.308,-4.047 -32.307,-29.489 -45.13,-47.096 -14.807,-20.33 -27.046,-22.194 -50.597,-25.952 -12.697,-2.026 -18.841,-7.628 -26.166,-17.759 l -4.834,-4.778 0.871,-2.006 c -1.614,-11.768 -1.214,-23.746 -1.371,-35.594 -0.478,3.08 -0.391,7.966 -2.578,10.13 -5.493,1.015 -10.473,-1.515 -15.209,-4 -16.367,-8.584 -36.782,-22.566 -40.534,-42.219 -3.158,-17.439 3.76,-35.47 -1.852,-52.633 -5.406,-16.407 -19.322,-20.249 -33.359,-27.147 -43.29,-19.543 -54.169,-45.208 -30.421,-87.487 z"
   id="path13" />
		<path
   style="fill:#c02102"
   d="m 1388.888,1786.354 c -2.907,13.705 -5.332,27.271 -6.613,41.232 -7.272,-0.01 -12.461,0.286 -17.948,5.763 -15.144,15.116 -21.75,46.51 -31.745,66.131 -6.667,13.087 -14.453,25.342 -22.95,37.31 -3.997,5.629 -8.882,11.23 -12.432,17.092 -21.163,19.417 -45.151,26.124 -72.089,14.928 -9.478,-3.94 -19.898,-9.455 -30.324,-9.743 -7.724,-0.214 -16.775,2.904 -24.305,4.677 -10.428,-2.825 -16.915,-5.897 -15.825,-17.933 1.546,-9.739 5.031,-18.29 9.175,-27.144 42.741,-23.356 42.597,-3.363 75.818,10.696 49.35,15.542 87.166,-57.007 99.908,-94.856 5.829,-15.325 9.616,-30.059 12.576,-46.198 12.649,2.374 24.354,1.205 36.754,-1.955 z"
   id="path14" />
		<path
   style="fill:#f87c08"
   d="m 1036.513,1712.031 c 24.991,-33.104 74.281,-64.767 109.549,-87.237 -28.916,33.358 -83.25,92.352 -33.754,131.094 27.73,23.695 56.584,10.801 76.729,23.577 22.972,14.569 2.598,52.703 62.007,72.26 9.469,3.117 20.387,6.807 30.436,5.885 28.105,-2.916 43.667,-29.988 53.808,-53.445 1.889,-4.186 3.718,-9.681 6.368,-13.383 1.31,-1.832 3.567,-2.751 5.568,-3.604 l 4.911,1.132 c -2.96,16.139 -6.748,30.872 -12.576,46.198 -13.677,11.531 -27.192,36.136 -40.599,50.488 -37.819,40.49 -54.372,-5.75 -91.026,-11.165 -19.106,-2.822 -35.208,7.887 -53.74,8.214 -31.51,0.559 -38.415,-40.003 -65.039,-55.584 -18.495,-10.825 -45.274,-11.353 -60.854,-26.511 -27.456,-31.03 21.623,-93.14 44.022,-115.863 10.216,-10.226 21.867,-18.732 32.174,-28.802 -18.302,11.608 -35.206,27.361 -51.396,41.785 -5.562,4.954 -10.528,10.604 -16.588,14.961 z"
   id="path15" />
		<path
   style="fill:#e65404"
   d="m 873.74,1591.031 c 18.933,14.296 17.942,22.854 29.822,40.771 22.029,33.227 79.878,31.861 115.011,26.958 48.273,-6.735 93.725,-28.105 136.145,-51.326 3.592,-1.782 6.515,-2.926 10.518,-3.589 -26.385,32.234 -38.589,87.814 -0.449,116.164 10.908,8.037 24.573,10.011 35.857,16.992 10.395,6.429 16.561,17.683 27.304,23.496 23.908,12.938 48.431,-4.132 72.48,1.529 17.882,4.21 29.998,18.749 46.797,25.151 -2.001,0.854 -4.258,1.773 -5.568,3.604 -2.65,3.702 -4.478,9.197 -6.367,13.383 -10.13,23.451 -25.708,50.539 -53.808,53.445 -10.049,0.922 -20.967,-2.768 -30.436,-5.885 -59.409,-19.557 -39.036,-57.69 -62.007,-72.26 -20.145,-12.776 -48.999,0.118 -76.73,-23.577 -49.479,-38.717 4.824,-97.752 33.755,-131.094 -35.268,22.47 -84.558,54.133 -109.549,87.237 -20.195,23.17 -40.889,53.653 -41.229,85.53 -0.478,3.08 -0.391,7.966 -2.578,10.13 -5.493,1.015 -10.473,-1.515 -15.209,-4 -16.367,-8.584 -36.782,-22.566 -40.534,-42.219 -3.158,-17.439 3.76,-35.47 -1.852,-52.633 -5.406,-16.407 -19.322,-20.249 -33.359,-27.147 -43.29,-19.543 -54.169,-45.208 -30.421,-87.487 z"
   id="path16" />
		<path
   style="fill:#e65404"
   d="m 1922.779,1908.356 c -3.552,17.85 -11.548,35.017 -27.22,45.229 -19.503,12.692 -42.591,9.585 -62.316,19.551 -18.224,9.203 -29.509,29.771 -46.342,41.756 -12.946,8.25 -26.56,17.89 -42.59,14.297 -40.866,-9.147 -56.053,7.01 -89.679,25.217 -18.683,8.217 -35.684,5.992 -53.192,-3.584 -13.002,-8.925 -23.644,-20.91 -33.737,-32.903 -5.786,-7.749 -11.484,-15.696 -15.752,-24.399 -1.478,-5.516 -5.285,-11.468 -7.614,-16.817 -9.887,-15.513 -14.647,-37.289 -20.02,-54.829 l -6.891,-0.072 c -8.695,-0.699 -17.786,-0.294 -26.521,-0.365 -64.681,-2.839 -111.702,-19.994 -108.634,-93.852 1.287,-13.964 3.712,-27.53 6.612,-41.231 l 2.337,-1.51 c 9.378,0.437 20.926,-5.42 29.104,-9.433 21.069,-16.658 34.119,-41.279 43.997,-65.678 34.547,18.568 142.268,38.015 168.271,0.692 l -1.844,-8.996 5.428,-1.86 3.386,-1.939 c 8.472,15.394 13.876,33.689 23.318,48.217 16.404,34.619 40.055,74.11 78.155,87.692 33.117,11.818 35.835,-6.04 58.613,-6.986 24.454,-1.025 42.948,25.209 76.709,8.957 10.866,-5.035 20.38,-14.573 29.191,-22.531 10.483,8.059 16.69,30.9 18.382,43.592 0.342,2.488 0.127,4.355 -0.866,6.692 6.391,9.481 1.972,33.831 -0.285,45.093 z"
   id="path17" />
		<path
   style="fill:#f87c08"
   d="m 1922.779,1908.356 c -3.552,17.85 -11.548,35.017 -27.22,45.229 -19.503,12.692 -42.591,9.585 -62.316,19.551 -18.224,9.203 -29.509,29.771 -46.342,41.756 -12.946,8.25 -26.56,17.89 -42.59,14.297 -40.866,-9.147 -56.053,7.01 -89.679,25.217 -18.683,8.217 -35.684,5.992 -53.192,-3.584 -13.002,-8.925 -23.644,-20.91 -33.737,-32.903 -5.786,-7.749 -11.484,-15.696 -15.752,-24.399 -1.478,-5.516 -5.285,-11.468 -7.614,-16.817 23.506,12.098 39.287,47.944 69.843,45.856 18.891,-1.176 29.803,-17.826 41.112,-30.772 24.176,-27.697 63.444,-17.27 96.14,-19.606 46.079,-3.29 38.855,-26.091 68.817,-42.447 38.315,-20.926 46.858,4.339 88.034,-43.298 4.53,-5.245 15.275,-16.356 14.782,-23.175 6.39,9.483 1.971,33.833 -0.286,45.095 z"
   id="path18" />
		<path
   style="fill:#c02102"
   d="m 1639.564,1697.626 c 8.467,15.394 13.875,33.69 23.315,48.223 16.404,34.618 40.06,74.104 78.155,87.692 33.117,11.814 35.835,-6.04 58.615,-6.991 24.456,-1.021 42.944,25.214 76.705,8.958 7.265,-3.5 13.629,-8.398 19.589,-13.787 13.521,21.407 9.222,46.77 -13.334,59.731 -37.911,22.048 -53.767,-1.139 -84.41,3.031 -17.096,2.327 -32.9,13.731 -50.545,8.703 -22.244,-6.338 -44.693,-41.064 -57.956,-37.702 -14.666,15.456 6.796,54.566 -45.096,88.806 -10.797,7.125 -23.912,13.05 -37.035,13.441 -23.85,0.516 -43.734,-17.646 -53.777,-38.022 92.597,-9.437 120.32,-64.204 100.229,-150.917 -1.693,-17.196 -11.445,-53.535 -17.846,-69.225 z"
   id="path19" />
		<path
   style="fill:#fd9508"
   d="m 1645.889,1874.134 c -25.288,39.576 -78.498,45.861 -121.572,47.74 l -6.891,-0.072 c -8.695,-0.699 -17.786,-0.294 -26.521,-0.365 -64.681,-2.839 -111.702,-19.994 -108.634,-93.852 1.287,-13.964 3.712,-27.53 6.612,-41.231 l 2.337,-1.51 c 9.378,0.437 20.926,-5.42 29.104,-9.433 21.069,-16.658 34.119,-41.279 43.997,-65.678 34.547,18.568 142.268,38.015 168.271,0.692 l -1.844,-8.996 5.428,-1.86 c 6.398,15.688 16.149,52.032 17.842,69.222 8.37,33.252 10.222,74.921 -8.129,105.343 z"
   id="path20" />
		<path
   style="fill:#feb918"
   d="m 1645.889,1874.134 c -25.288,39.576 -78.498,45.861 -121.572,47.74 l -6.891,-0.072 c -8.695,-0.699 -17.786,-0.294 -26.521,-0.365 -64.681,-2.839 -111.702,-19.994 -108.634,-93.852 1.287,-13.964 3.712,-27.53 6.612,-41.231 l 2.337,-1.51 c 1.287,1.232 2.575,2.384 3.044,4.188 1.796,6.93 1.447,15.974 1.931,23.191 2.185,28.003 6.881,59.916 33.451,75.27 34.348,19.462 49.702,-21.565 79.315,-26.95 29.104,-4.68 51.293,20.06 81.088,12.446 31.122,-7.955 52.986,-40.683 58.199,-70.963 1.56,-8.829 0.8,-26.283 5.77,-33.236 8.37,33.253 10.222,74.922 -8.129,105.344 z"
   id="path21" />
		<path
   style="fill:#f46a03"
   d="m 1464.32,1709.732 c 34.55,18.571 142.259,38.018 168.275,0.692 6.12,24.424 10.619,57.295 -2.78,80.108 -4.326,7.365 -10.752,14.515 -19.367,16.596 -12.053,2.912 -25.835,-3.291 -35.673,-9.776 -12.755,-8.408 -32.628,-31.87 -48.937,-29.691 -22.015,2.942 -54.254,82.79 -85.466,62.752 -15.735,-10.93 -17.839,-37.574 -20.046,-54.999 21.071,-16.661 34.114,-41.279 43.994,-65.682 z"
   id="path22" />
		<path
   style="fill:#f87c08"
   d="m 1948.099,1040.319 c 11.662,-3.685 22.615,-9.641 34.149,-13.826 30.734,-11.157 74.197,-19.732 104.931,-4.798 6.023,2.927 10.09,7.039 12.2,13.492 5.495,16.795 3.989,29.804 21.716,38.907 15.941,8.18 40.048,8.753 46.846,28.423 5.914,17.143 -5.681,36.333 0.419,53.279 4.067,11.296 20.365,13.023 28.313,20.794 16.593,16.229 16.935,46.249 6.861,65.77 -11.223,21.739 -44.192,50.514 -67.118,59.451 45.983,12.538 143.925,34.021 128.665,99.525 -3.292,12.582 -11.099,24.4 -11.161,37.68 -0.062,13.818 8.103,26.391 11.3,39.569 8.32,34.255 -4.734,77.815 -36.338,95.582 -38.945,21.893 -79.102,1.195 -84.876,3.244 -1.568,0.557 -2.623,3.766 -3.042,5.215 -0.543,1.884 -1.04,3.714 -1.304,5.666 -5.154,22.335 -23.299,44.549 -42.531,56.512 -30.579,19.023 -68.236,13.807 -101.749,7.396 -8.366,-1.602 -18.58,-5.093 -27.009,-5.082 -3.244,-8.117 -17.804,-19.19 -24.51,-25.55 -4.082,-4.843 -11.657,-8.657 -17.028,-11.94 -13.287,-7.735 -26.155,-15.943 -39.691,-23.257 3.85,-0.078 7.746,0.116 11.424,-1.141 18.96,-0.097 41.782,-6.035 55.089,-20.378 4.284,-4.665 9.5,-12.907 9.189,-19.341 6.892,-8.025 6.907,-20.937 14.296,-29.419 12.216,-14.003 37.285,-22.06 43.742,-40.045 2.484,-6.895 1.894,-13.807 -1.397,-20.266 0.047,-0.414 0.124,-0.826 0.155,-1.243 0.171,-3.314 -1.428,-5.452 -3.446,-7.862 -0.449,-11.501 -16.586,-26.582 -25.301,-32.89 -6.333,-10.294 -31.448,-22.712 -42.36,-28.889 -11.657,-5.989 -22.647,-12.182 -35.484,-15.376 10.928,-4.542 33.901,-25.199 45.263,-32.957 22.368,-15.255 47.747,-26.334 69.4,-42.51 9.795,-7.323 16.128,-16.885 17.68,-29.183 1.739,-13.851 -4.051,-26.296 -6.1,-39.705 -2.173,-14.26 1.738,-38.305 -7.544,-50.114 -0.031,-4.557 -2.592,-8.783 -4.89,-12.589 -13.365,-22.191 -39.877,-37.148 -64.371,-43.247 -21.933,-4.264 -43.09,-3 -64.961,0.658 -17.085,4.341 -34.092,8.97 -51.021,13.888 13.161,-14.784 48.149,-34.935 58.145,-52.501 16.61,-10.017 26.607,-31.554 43.449,-40.942 z"
   id="path23" />
		<path
   style="fill:#e65404"
   d="m 2019.486,1455.782 c 17.788,-1.097 59.73,23.62 72.893,35.371 4.983,4.439 10.71,10.935 11.021,17.922 -1.077,31.019 -43.704,28.421 -59.947,49.194 -20.055,23.851 -2.919,76.767 -47.251,76.874 -19.03,0.045 -34.459,-10.254 -52.341,-13.574 -4.082,-4.843 -11.657,-8.657 -17.028,-11.94 -13.287,-7.735 -26.155,-15.943 -39.691,-23.257 3.85,-0.078 7.746,0.116 11.424,-1.141 18.96,-0.097 41.782,-6.035 55.089,-20.378 4.284,-4.665 9.5,-12.907 9.189,-19.341 6.892,-8.025 6.907,-20.937 14.296,-29.419 12.216,-14.003 37.285,-22.06 43.742,-40.045 2.484,-6.895 1.894,-13.807 -1.396,-20.266 z"
   id="path24" />
		<path
   style="fill:#ce2902"
   d="m 1962.845,1545.512 c 2.22,1.206 3.399,1.262 4.16,3.755 3.725,12.329 1.49,27.141 -4.626,38.346 -7.175,13.62 -20.922,19.79 -35.546,22.015 -13.287,-7.735 -26.155,-15.943 -39.691,-23.257 3.85,-0.078 7.746,0.116 11.424,-1.141 18.96,-0.097 41.782,-6.035 55.089,-20.378 4.285,-4.664 9.5,-12.906 9.19,-19.34 z"
   id="path25" />
		<path
   style="fill:#e65404"
   d="m 2117.727,1311.662 c 20.117,2.159 85.869,24.473 98.21,39.705 19.719,27.513 -16.01,55.954 -16.267,84.308 -1.428,38.253 57.851,57.405 7.311,96.085 -17.075,13.068 -36.058,18.105 -57.309,15.872 3.213,-5.979 1.552,-15.15 -0.357,-21.422 -5.479,-18.087 -20.784,-34.411 -37.005,-43.567 -2.732,-3.516 -8.335,-6.369 -12.154,-8.7 -26.652,-16.249 -53.956,-21.508 -83.96,-27.265 -0.449,-11.501 -16.586,-26.582 -25.301,-32.89 -6.333,-10.294 -31.448,-22.712 -42.36,-28.889 l 0.279,-1.254 c 25.829,0.698 127.33,-44.526 151.296,-61.88 4.097,-2.162 15.35,-6.528 17.617,-10.103 z"
   id="path26" />
		<path
   style="fill:#e03702"
   d="m 1990.894,1413.786 c 9.903,0.225 19.9,-0.31 29.787,-0.905 8.349,6.111 27.836,6.057 38.185,7.781 18.208,2.927 66.063,12.336 71.263,32.765 3.016,11.762 -7.445,24.925 -17.82,29.215 -2.732,-3.516 -8.335,-6.369 -12.154,-8.7 -26.652,-16.249 -53.956,-21.508 -83.96,-27.265 -0.449,-11.502 -16.586,-26.583 -25.301,-32.891 z"
   id="path27" />
		<path
   style="fill:#ce2902"
   d="m 2100.109,1321.764 c 21.531,6.302 35.884,26.642 29.632,49.1 -9.114,33.306 -79.978,40.45 -109.06,42.017 -9.888,0.594 -19.884,1.13 -29.787,0.905 -6.333,-10.294 -31.448,-22.712 -42.36,-28.889 l 0.279,-1.254 c 25.829,0.699 127.329,-44.525 151.296,-61.879 z"
   id="path28" />
		<path
   style="fill:#e65404"
   d="m 1897.527,1119.876 c -0.512,-5.054 4.89,-10.464 8.04,-14.329 29.401,-35.875 91.629,-77.601 136.069,-44.888 11.89,9.743 9.065,25.234 17.975,35.364 10.819,12.283 34.165,8.353 47.685,19.498 26.807,22.085 16.826,52.421 32.644,75.262 7.839,11.32 23.796,17.801 25.053,32.999 1.695,51.138 -122.052,110.819 -163.558,131.762 -16.02,7.791 -35.19,14.444 -49.859,24.316 -2.08,1.403 -2.018,1.388 -2.763,3.784 l -0.279,1.254 c -11.657,-5.989 -22.647,-12.182 -35.484,-15.376 10.928,-4.542 33.901,-25.199 45.263,-32.957 22.368,-15.255 47.747,-26.334 69.4,-42.51 9.795,-7.323 16.128,-16.885 17.68,-29.183 1.739,-13.851 -4.051,-26.296 -6.1,-39.705 -2.173,-14.26 1.738,-38.305 -7.544,-50.114 -0.031,-4.557 -2.592,-8.783 -4.89,-12.589 -13.365,-22.191 -39.877,-37.148 -64.371,-43.247 -21.933,-4.264 -43.09,-3 -64.961,0.659 z"
   id="path29" />
		<path
   style="fill:#feb918"
   d="m 1318.509,938.671 c -0.219,-8.904 -6.891,-19.558 -9.854,-28.137 -8.846,-25.718 -9.042,-61.809 8.404,-84.177 8.174,-10.479 20.086,-16.193 33.162,-17.699 8.376,-0.964 17.756,-0.386 25.806,-2.94 21.337,-6.77 33.76,-30.957 55.367,-36.207 20.514,-4.984 40.9,10.9 60.942,13.427 34,4.286 70.875,-31.605 101.685,-7.144 9.18,7.289 16.297,17.938 26.976,23.237 8.61,4.273 19.575,1.291 28.768,3.068 29.432,5.69 50.937,41.974 53.963,69.631 1.377,12.576 -1.161,24.456 -4.019,36.605 38.358,-46.243 104.544,-91.587 162.69,-51.265 10.803,9.083 15.708,23.89 28.39,31.038 9.438,5.31 22.275,3.746 32.69,6.229 30.626,7.294 55.787,36.918 58.255,68.098 2.188,27.773 -8.894,43.846 -24.572,65.045 -2.825,3.823 -7.311,8.531 -9.065,12.84 -16.842,9.388 -26.838,30.925 -43.447,40.943 -9.996,17.567 -44.984,37.718 -58.145,52.501 16.929,-4.917 33.935,-9.547 51.021,-13.888 21.871,-3.659 43.028,-4.922 64.961,-0.658 24.494,6.099 51.006,21.056 64.371,43.247 2.297,3.806 4.859,8.031 4.89,12.589 9.282,11.809 5.371,35.853 7.544,50.114 2.049,13.408 7.839,25.854 6.1,39.705 -1.552,12.298 -7.885,21.86 -17.68,29.183 -21.654,16.176 -47.033,27.254 -69.4,42.51 -11.362,7.758 -34.335,28.415 -45.263,32.957 12.837,3.195 23.827,9.388 35.484,15.376 10.912,6.176 36.027,18.594 42.36,28.889 8.72,6.315 24.848,21.383 25.301,32.89 2.018,2.411 3.617,4.548 3.446,7.862 -0.031,0.417 -0.109,0.829 -0.155,1.243 3.291,6.459 3.88,13.371 1.397,20.266 -6.457,17.984 -31.526,26.042 -43.742,40.045 -7.389,8.483 -7.404,21.394 -14.296,29.419 0.31,6.434 -4.905,14.676 -9.189,19.341 -13.309,14.344 -36.127,20.28 -55.089,20.378 -3.679,1.257 -7.575,1.063 -11.424,1.141 13.535,7.314 26.403,15.522 39.691,23.257 5.371,3.283 12.946,7.097 17.028,11.94 6.706,6.359 21.266,17.433 24.51,25.55 14.544,14.589 23.485,46.253 23.408,66.12 0.238,38.096 -29.094,70.113 -63.114,83.732 -1.816,0.905 -3.57,1.85 -5.526,2.395 -3.089,1.563 -6.799,3.005 -9.376,5.329 l -8.211,8.281 c -8.861,7.974 -18.308,17.49 -29.198,22.532 -33.761,16.257 -52.25,-9.979 -76.705,-8.958 -22.781,0.952 -25.499,18.805 -58.615,6.991 -38.095,-13.588 -61.751,-53.074 -78.155,-87.692 -9.439,-14.534 -14.847,-32.83 -23.315,-48.223 l -3.39,1.942 -5.425,1.863 1.846,8.994 c -26.02,37.298 -133.574,17.925 -168.275,-0.692 -9.88,24.403 -22.923,49.021 -43.995,65.683 -8.179,4.009 -19.723,9.866 -29.106,9.433 l -2.331,1.506 c -12.399,3.16 -24.105,4.329 -36.752,1.954 l -4.911,-1.132 c -16.798,-6.401 -28.915,-20.941 -46.797,-25.151 -24.049,-5.661 -48.573,11.409 -72.48,-1.529 -10.743,-5.813 -16.908,-17.067 -27.304,-23.496 -11.285,-6.98 -24.949,-8.955 -35.858,-16.992 -38.135,-28.365 -25.932,-83.906 0.45,-116.163 -4.003,0.663 -6.926,1.807 -10.518,3.589 -42.42,23.221 -87.872,44.591 -136.145,51.326 -35.133,4.903 -92.982,6.27 -115.011,-26.958 -11.879,-17.917 -10.889,-26.475 -29.822,-40.771 -3.224,-5.655 -8.595,-10.998 -12.755,-16.053 -41.738,9.264 -95.855,18.667 -118.881,-27.645 -12.081,-23.762 -12.485,-58.265 -3.844,-83.298 3.809,-11.033 9.656,-21.141 13.27,-32.3 -2.658,-11.456 -10.803,-19.999 -15.108,-30.706 -4.112,-10.419 -3.582,-22.605 0.846,-32.851 10.996,-25.438 48.22,-44.597 74.018,-51.593 17.084,-4.637 36.246,-6.37 52.472,-13.407 -30,-17.402 -69.818,-38.371 -77.965,-75.061 -3.518,-17.76 6.744,-44.882 20.895,-56.289 9.411,-7.589 23.974,-6.215 28.972,-19.558 7.063,-18.855 -9.208,-39.793 4,-58.48 13.29,-18.805 42.146,-10.499 55.587,-26.986 9.018,-11.064 2.352,-27.021 10.605,-38.497 5.556,-7.722 14.524,-11.317 23.609,-12.887 37.932,-6.555 86.699,7.061 117.756,29.041 -3.539,-7.629 -10.828,-14.7 -15.519,-21.817 -33.757,-58.213 -18.358,-105.318 46.25,-126.854 12.79,-4.108 32.359,-7.358 42.738,-15.599 l 0.666,-0.536 c 9.389,-7.482 14.811,-18.751 23.841,-26.474 12.418,-10.622 28.586,-12.996 44.381,-11.681 49.819,4.149 81.374,36.821 111.868,72.405 6.372,7.905 11.743,16.129 17.067,24.764 z"
   id="path30" />
		<path
   style="fill:#f87c08"
   d="m 1245.39,1306.749 11.111,0.444 c 11.308,5.09 51.961,23.602 55.769,33.722 0.539,1.451 1.042,2.915 1.509,4.391 -13.699,-10.867 -31.192,-15.865 -45.898,-25.368 -6.266,-7.776 -13.187,-10.176 -22.491,-13.189 z"
   id="path31" />
		<path
   style="fill:#e03702"
   d="m 1330.182,1343.514 c -6.481,-8.465 -11.205,-26.622 -4.426,-35.858 1.464,-1.729 3.147,-2.502 5.408,-2.507 8.273,-0.014 26.005,24.511 31.791,30.877 -10.344,2.397 -22.787,4.086 -32.773,7.488 z"
   id="path32" />
		<path
   style="fill:#c02102"
   d="m 1330.182,1343.514 c -0.25,-4.957 -0.848,-9.366 3.552,-12.733 1.22,-1.06 3.694,-1.482 5.262,-1.246 5.191,0.782 8.307,5.251 11.19,9.153 -6.667,1.4 -13.587,2.516 -20.004,4.826 z"
   id="path33" />
		<path
   style="fill:#fd9508"
   d="m 1257.16,1246.485 c -27.764,-42.724 17.616,-41.914 46.181,-30.261 14.457,5.869 34.974,19.12 41.026,34.279 -5.829,-3.114 -11.493,-6.302 -17.039,-9.896 -8.967,-11.476 -30.807,-20.446 -44.991,-22.029 -18.627,-2.212 -25.56,11.298 -25.177,27.907 z"
   id="path34" />
		<path
   style="fill:#ce2902"
   d="m 1365.812,1264.269 c 1.653,-5.217 3.356,-10.644 8.166,-13.751 6.109,-1.661 11.262,3.386 16.77,5.003 3.606,1.121 8.343,1.102 11.566,3.089 7.497,4.619 10.659,18.698 20.851,17.711 5.585,-0.542 9.633,-4.418 15.619,-3.277 0.154,2.223 0.279,3.641 -0.773,5.708 -11.398,5.197 -17.525,9.979 -23.038,21.28 -8.39,-13.289 -20.718,-24.386 -35.587,-29.884 -4.732,-1.75 -10.075,-1.989 -13.574,-5.879 z"
   id="path35" />
		<path
   style="fill:#ce2902"
   d="m 1168.084,1379.383 c 23.207,9.158 47.84,13.554 71.117,23.023 -7.62,7.373 -12.891,14.572 -17.896,23.895 -21.475,-11.693 -41.003,-24.993 -53.221,-46.918 z"
   id="path36" />
		<path
   style="fill:#e65404"
   d="m 1070.858,1315.151 c 15.316,5.777 52.628,15.733 63.319,25.168 l 0.68,2.223 c -0.509,0.321 -53.2,6.67 -62.749,9.394 -5.185,-6.583 -4.834,-29.272 -1.25,-36.785 z"
   id="path37" />
		<path
   style="fill:#e03702"
   d="m 1414.701,1212.979 c 2.062,-11.911 7.297,-48.624 23.63,-47.036 13.781,3.579 22.522,40.912 25.702,53.788 -5.372,-4.098 -8.309,-13.121 -15.307,-15.08 -1.428,-0.399 -2.027,-0.248 -3.325,0.484 -4.975,2.807 -6.227,11.688 -7.538,16.731 l -9.717,-13.436 z"
   id="path38" />
		<path
   style="fill:#c02102"
   d="m 1464.613,1348.752 c 1.156,-3.877 2.279,-7.873 4.05,-11.521 8.063,-15.737 21.854,-15.119 35.517,-6.987 -17.248,14.718 -30.355,28.004 -40.763,48.543 -9.622,-10.049 -18.754,-19.286 -30.158,-27.367 5.863,-2.817 7.628,-9.005 14.468,-11.76 6.595,0.029 11.925,5.245 16.886,9.092 z"
   id="path39" />
		<path
   style="fill:#ce2902"
   d="m 1430.151,1486.198 c 19.355,-1.206 37.733,-4.346 56.725,-8.062 9.438,4.217 17.936,9.908 26.425,15.734 -7.488,3.131 -18.83,1.844 -27.085,2.945 -21.492,2.864 -54.612,13.157 -75.521,8.767 z"
   id="path40" />
		<path
   style="fill:#e03702"
   d="m 1369.229,1323.335 c -5.914,-11.022 -10.59,-27.46 -0.567,-37.564 9.427,-4.46 14.54,8.095 17.36,14.996 4.759,0.289 9.635,0.394 14.363,0.978 4.093,3.6 8.187,7.106 11.775,11.223 -0.88,6.828 -1.437,13.293 -1.208,20.179 0.042,1.928 -0.165,3.794 -0.343,5.711 -11.032,-2.838 -21.745,-4.054 -33.08,-4.481 -3.273,-3.455 -5.733,-7.058 -8.3,-11.042 z"
   id="path41" />
		<path
   style="fill:#ce2902"
   d="m 1369.229,1323.335 c 2.055,-1.807 2.358,-2.358 5.229,-2.279 1.689,0.047 2.83,0.739 4.293,1.507 2.021,2.864 3.905,5.726 5.655,8.764 1.248,-0.862 1.41,-0.762 2.043,-2.232 1.461,-3.39 3.131,-7.167 6.72,-8.756 2.376,-1.052 3.317,-0.652 5.735,-0.105 1.97,1.591 3.07,3.005 4.357,5.195 1.926,3.408 4.708,5.313 7.691,7.718 0.042,1.928 -0.165,3.794 -0.343,5.711 -11.032,-2.838 -21.745,-4.054 -33.08,-4.481 -3.273,-3.455 -5.733,-7.058 -8.3,-11.042 z"
   id="path42" />
		<path
   style="fill:#ce2902"
   d="m 1381.985,1481.009 c 6.301,2.367 20.848,4.227 25.368,7.261 -1.105,2.676 -2.255,3.267 -4.491,5.037 -12.306,3.625 -21.242,15.833 -37.654,19.521 -28.69,6.445 -47.034,-8.778 -71.708,-19.266 -7.445,-3.163 -16.455,-4.293 -23.256,-8.609 30.587,-4.994 41.501,18.936 77.93,10.316 11.946,-2.876 23.414,-7.713 33.811,-14.26 z"
   id="path43" />
		<path
   style="fill:#ce2902"
   d="m 1280.77,1588.152 c 22.568,4.172 44.045,-10.134 61.914,-22.411 8.916,-6.093 17.527,-12.59 25.832,-19.491 1.073,14.627 2.66,29.198 4.759,43.713 -2.375,2.33 -10.951,1.284 -14.641,1.389 -15.46,0.436 -29.458,7.518 -44.869,8.23 -12.565,0.58 -23.686,-2.831 -32.995,-11.43 z"
   id="path44" />
		<path
   style="fill:#e65404"
   d="m 1851.284,1189.163 c 6.36,11.723 1.819,31.6 -3.371,43.267 -4.951,10.997 -12.739,20.693 -22.413,27.895 -4.76,3.413 -9.588,6.756 -15.415,7.966 -12.244,-10.054 -24.398,-14.447 -39.455,-18.472 35.035,-7.98 68.125,-24.996 80.654,-60.656 z"
   id="path45" />
		<path
   style="fill:#e03702"
   d="m 1365.812,1264.269 c -6.932,-13.006 -16.286,-31.945 -12.177,-47.092 1.348,-5.559 7.253,-10.8 13.132,-8.655 13.615,5.037 19.727,26.579 29.718,36.388 9.597,9.425 27.226,5.279 34.664,13.938 3.221,3.75 5.438,9.703 7.635,14.197 -5.985,-1.141 -10.034,2.735 -15.619,3.277 -10.192,0.987 -13.354,-13.092 -20.851,-17.711 -3.222,-1.987 -7.96,-1.968 -11.566,-3.089 -5.508,-1.617 -10.663,-6.664 -16.77,-5.003 -4.81,3.106 -6.513,8.533 -8.166,13.75 z"
   id="path46" />
		<path
   style="fill:#e03702"
   d="m 1267.88,1319.938 c 14.706,9.504 32.199,14.501 45.898,25.368 l 2.715,3.361 c -4.543,13.306 -4.297,19.514 1.515,32.274 -7.246,-2.906 -14.183,-5.433 -21.918,-6.819 -10.782,-7.196 -24.119,-11.387 -34.137,-19.058 -7.473,-5.72 -8.151,-10.575 -9.259,-19.453 3.94,-5.855 10.099,-10.792 15.186,-15.673 z"
   id="path47" />
		<path
   style="fill:#e03702"
   d="m 1518.926,1201.062 c 5.029,-8.503 20.646,-42.759 32.533,-38.132 5.723,7.248 1.953,18.809 2.897,27.44 1.055,11.56 10.898,30.748 6.302,41.178 -7.038,-9.033 -9.69,-28.354 -22.147,-31.11 -14.677,1.324 -11.634,23.72 -19.085,31.026 -3.415,-2.6 -11.155,-9.562 -15.813,-8.531 -5.653,1.25 -12.523,7.893 -16.412,11.975 l -1.374,-1.217 c 1.014,-12.353 2.986,-35.634 18.181,-38.246 6.128,-0.8 10.252,2.244 14.918,5.617 z"
   id="path48" />
		<path
   style="fill:#ce2902"
   d="m 1437.864,1221.867 c 1.31,-5.043 2.563,-13.925 7.538,-16.731 1.298,-0.733 1.897,-0.883 3.325,-0.484 6.997,1.959 9.934,10.982 15.307,15.08 6.111,19.061 6.849,38.753 7.732,58.572 -5.029,5.642 -7.673,11.288 -10.172,18.368 -11.416,-24.979 -11.83,-65.756 -49.19,-61.127 l 2.299,-22.565 13.446,-4.548 z"
   id="path49" />
		<path
   style="fill:#e03702"
   d="m 1575.808,1166.216 c 8.312,-15.2 48.473,-24.607 63.907,-17.854 7.919,3.902 7.879,19.22 9.121,27.006 -4.09,5.836 -7.85,11.802 -11.555,17.883 -0.527,-7.446 -1.232,-17.362 -8.866,-21.022 -15.186,-7.411 -46.428,32.385 -55.896,42.474 -3.719,-10.347 -5.481,-19.215 -5.72,-30.219 3.399,-5.951 6.26,-11.994 9.009,-18.268 z"
   id="path50" />
		<path
   style="fill:#e03702"
   d="m 1462.491,1324.938 c 2.94,-7.05 5.93,-14.052 9.615,-20.755 3.303,-6.009 7.448,-12.745 14.389,-14.739 9.607,2.019 21.412,29.05 20.839,38.061 l -3.154,2.74 c -13.68,-8.14 -27.455,-8.742 -35.517,6.987 -1.771,3.647 -2.893,7.643 -4.05,11.52 -4.961,-3.848 -10.291,-9.063 -16.887,-9.091 -6.841,2.755 -8.605,8.942 -14.468,11.76 l -3.663,-2.611 c -7.849,-16.453 -5.557,-38.99 6.84,-52.68 2.305,-2.381 4.32,-3.224 7.588,-3.373 1.029,0.433 2.983,0.948 3.806,1.602 4.297,3.415 12.041,24.674 14.662,30.579 z"
   id="path51" />
		<path
   style="fill:#fd9508"
   d="m 1452.63,1151.513 c -1.431,-0.764 -2.723,-1.791 -4.044,-2.732 -3.927,-12.3 0.893,-36.582 3.87,-49.155 1.501,-6.333 4.334,-13.581 10.304,-16.921 4.843,-2.71 10.827,-1.92 15.988,-0.644 24.334,6.01 55.242,31.99 67.454,54.196 1.448,2.634 0.706,3.3 -0.168,5.914 -4.284,-5.628 -8.283,-10.1 -14.447,-13.726 -11.702,-0.31 -22.956,1.951 -34.559,2.796 -5.788,-5.737 -10.783,-10.861 -19.527,-11.086 -16.109,-0.556 -25.228,17.16 -24.871,31.358 z"
   id="path52" />
		<path
   style="fill:#e03702"
   d="m 1087.094,1533.437 c 26.213,1.65 52.098,-4.838 77.944,-8.224 12.4,23.081 26.751,32.156 52.479,36.139 -13.366,7.718 -24.893,15.927 -36.578,25.995 -30.109,-5.38 -22.411,-28.123 -57.461,-39.573 -7.156,-2.336 -34.368,-8.408 -38.683,-13.2 z"
   id="path53" />
		<path
   style="fill:#f46a03"
   d="m 1141.437,1357.01 c 7.958,9.428 16.081,16.05 26.647,22.372 12.218,21.925 31.746,35.225 53.221,46.918 -4.075,10.353 -6.079,18.515 -5.824,29.744 -13.633,2.119 -26.343,5.292 -38.506,12.067 -1.141,-3.049 0.803,-7.999 1.442,-11.238 5.335,-26.989 -15.529,-33.915 -28.075,-53.024 -8.536,-13 -12.011,-31.589 -8.905,-46.839 z"
   id="path54" />
		<path
   style="fill:#fd9508"
   d="m 1359.383,1478.37 c -38.5,12.211 -38.019,-6.751 -66.712,-12.008 -10.167,-1.863 -20.705,2.184 -30.953,-0.188 -6.012,-1.391 -12.461,-3.873 -15.729,-9.442 -3.104,-5.29 -3.025,-11.983 -1.42,-17.739 3.924,-14.076 16.994,-28.328 29.575,-35.316 17.756,-9.865 37.999,-6.065 56.509,-0.685 4.816,7.697 9.436,15.511 13.858,23.442 l -12.34,-5.287 c -14.461,-11.923 -50.071,-12.626 -62.742,2.319 -3.471,4.328 -6.097,12.965 -5.186,18.416 0.363,2.165 1.225,2.946 2.547,4.629 10.032,5.264 24.693,-1.077 36.08,2.47 22.953,7.146 24.225,27.784 56.513,29.389 z"
   id="path55" />
		<path
   style="fill:#fd9508"
   d="m 1422.105,1478.993 c -9.177,0.321 -20.55,1.683 -29.207,-1.815 -16.885,-6.819 -38.767,-63.538 -46.011,-80.044 -3.783,-8.615 -8.155,-18.874 -4.523,-28.237 4.621,-5.124 10.235,-6.839 16.935,-7.19 38.238,-1.996 57.636,2.445 86.102,28.466 9.719,8.883 27.043,23.985 27.669,37.601 -22.077,-25.3 -40.737,-39.748 -72.953,-50.336 -7.15,-2.35 -15.403,-5.496 -22.913,-6.069 -1.872,-0.143 -3.449,0.138 -5.253,0.591 -2.234,2.783 -2.882,4.582 -2.453,8.289 0.706,6.103 2.974,11.875 3.739,17.933 0.936,7.403 0.793,14.951 1.982,22.323 4.194,24.413 19.187,55.749 46.886,58.488 z"
   id="path56" />
		<path
   style="fill:#f46a03"
   d="m 1359.383,1478.37 c -32.288,-1.605 -33.559,-22.244 -56.512,-29.39 -11.387,-3.547 -26.048,2.794 -36.08,-2.47 -1.323,-1.683 -2.184,-2.463 -2.547,-4.629 -0.911,-5.451 1.715,-14.088 5.186,-18.416 12.684,-14.94 48.239,-14.252 62.741,-2.319 l 12.34,5.287 c 8.526,13.447 14.037,27.692 23.645,40.695 2.36,2.724 4.673,5.487 6.937,8.291 z"
   id="path57" />
		<path
   style="fill:#ce2902"
   d="m 1368.156,1467.129 c -22.574,4.404 -31.316,-22.622 -45.885,-34.132 -5.49,-4.32 -18.068,-7.294 -21.454,-12.745 l 1.796,-1.822 c 8.506,-2.918 20.922,1.009 29.558,2.718 l 12.34,5.287 c 8.526,13.446 14.037,27.691 23.645,40.694 z"
   id="path58" />
		<path
   style="fill:#e65404"
   d="m 1513.301,1493.869 c 12.556,10.104 22.853,21.624 31.316,35.351 -10.635,3.82 -54.048,-3.511 -69.432,-3.339 -30.161,0.186 -60.345,10.127 -90.733,6.496 8.156,-9.681 16.533,-18.647 26.242,-26.796 20.909,4.39 54.029,-5.903 75.521,-8.767 8.255,-1.101 19.598,0.186 27.086,-2.945 z"
   id="path59" />
		<path
   style="fill:#fd9508"
   d="m 1477.114,1396.552 c 10.532,-27.369 33.586,-51.916 63.255,-58.153 6.662,-1.4 15.32,1.063 21.407,-1.684 14.605,-7.018 21.517,-32.394 41.667,-29.183 22.31,3.262 8.891,52.493 6.123,66.887 -1.908,-9.906 -3.194,-21.494 -12.272,-27.672 -6.614,-4.505 -15.198,-4.492 -22.725,-2.769 -9.202,2.106 -46.907,18.476 -54.856,23.684 -18.274,11.013 -23.219,43.431 -24.375,63.278 z"
   id="path60" />
		<path
   style="fill:#f46a03"
   d="m 1249.016,1390.301 c -8.495,-10.273 -20.538,-17.779 -29.298,-28.316 -6.942,-8.35 -18.531,-24.179 -16.885,-35.792 0.585,-4.137 2.774,-7.219 5.995,-9.756 10.499,-8.266 23.551,-11.35 36.563,-9.689 9.304,3.013 16.226,5.413 22.49,13.189 -5.087,4.88 -11.246,9.818 -15.186,15.673 1.108,8.877 1.787,13.733 9.259,19.453 10.018,7.671 23.355,11.862 34.137,19.058 -8.393,0.557 -15.9,1.509 -23.827,4.452 -4.842,1.797 -20.322,11.579 -23.248,11.728 z"
   id="path61" />
		<path
   style="fill:#fd9508"
   d="m 1249.016,1390.301 c -8.804,-2.094 -17.301,-5.77 -25.939,-8.481 -11.098,-3.485 -22.669,-6.161 -33.441,-10.538 -10.981,-4.463 -19.286,-10.634 -23.965,-21.8 -4.803,-11.463 -5.5,-27.558 -0.61,-39.102 16.551,-34.336 65.37,-15.12 91.441,-3.187 l -11.111,-0.444 c -13.012,-1.661 -26.063,1.423 -36.563,9.689 -3.221,2.536 -5.41,5.619 -5.995,9.756 -1.645,11.612 9.944,27.442 16.885,35.792 8.76,10.536 20.803,18.042 29.298,28.315 z"
   id="path62" />
		<path
   style="fill:#ce2902"
   d="m 1485.828,1233.692 1.374,1.217 c 3.888,-4.082 10.758,-10.726 16.412,-11.975 4.658,-1.031 12.398,5.931 15.813,8.531 7.448,-7.303 4.41,-29.705 19.085,-31.026 12.459,2.757 15.109,22.075 22.147,31.11 -19.811,21.795 -36.232,56.9 -40.027,86.081 -4.475,-11.659 -11.109,-33.356 -23.678,-38.95 -2.359,-1.051 -5.821,-1.223 -8.385,-1.572 -2.543,-13.145 -3.384,-30.035 -2.741,-43.416 z"
   id="path63" />
		<path
   style="fill:#f46a03"
   d="m 1452.63,1151.513 c -0.357,-14.198 8.762,-31.915 24.872,-31.358 8.743,0.225 13.739,5.349 19.527,11.086 11.603,-0.844 22.857,-3.106 34.559,-2.796 6.164,3.626 10.162,8.098 14.447,13.726 -15.404,9.133 -24.44,21.897 -32.398,37.677 -21.704,-0.985 -33.281,5.508 -42.182,25.677 -4.797,-18.383 -9.21,-37.432 -18.825,-54.012 z"
   id="path64" />
		<path
   style="fill:#fd9508"
   d="m 1655.583,1407.782 c 11.826,-0.043 24.746,0.972 33.784,9.736 2.938,2.848 5.054,6.147 5.034,10.364 -0.975,16.177 -23.324,24.836 -34.534,33.977 -33.353,25.41 -49.441,42.464 -95.189,39.619 -6.571,-0.41 -14.295,-1.012 -20.524,-3.106 39.542,-7.915 37.215,-17.616 66.124,-38.579 9.92,-7.195 21.693,-11.899 32.217,-18.135 14.227,-8.342 8.754,-20.366 13.088,-33.876 z"
   id="path65" />
		<path
   style="fill:#fd9508"
   d="m 1366.517,1528.27 c -15.551,17.513 -44.915,39.339 -68.911,39.075 -21.328,-0.705 -27.669,-19.155 -44.277,-28.141 -18.634,-10.085 -45.128,2.744 -61.388,-16.154 -13.646,-14.727 10.78,-45.59 22.566,-55.333 1.627,-1.302 1.583,-1.318 3.594,-1.131 l 1.333,3.184 c -7.082,17.218 -8.603,32.472 12.341,38.961 11.669,3.733 24.98,3.652 36.156,8.671 6.848,3.073 11.969,9.067 18.299,13.017 29.346,18.317 51.482,12.742 80.287,-2.149 z"
   id="path66" />
		<path
   style="fill:#e65404"
   d="m 1366.517,1528.27 c -28.805,14.891 -50.941,20.466 -80.286,2.148 -6.33,-3.95 -11.451,-9.944 -18.299,-13.017 -11.176,-5.018 -24.487,-4.938 -36.156,-8.671 -20.922,-6.462 -19.431,-21.769 -12.34,-38.961 10.869,21.719 31.171,15.319 50.809,15.184 6.8,4.315 15.811,5.445 23.256,8.609 24.674,10.489 43.019,25.711 71.708,19.266 16.412,-3.688 25.348,-15.896 37.654,-19.521 -11.112,12.316 -23.006,25.038 -36.346,34.963 z"
   id="path67" />
		<path
   style="fill:#f46a03"
   d="m 1633.664,1410.736 c 7.184,-1.47 14.641,-2.069 21.919,-2.954 -4.336,13.513 1.14,25.531 -13.088,33.876 -10.524,6.235 -22.296,10.94 -32.217,18.135 -28.909,20.963 -26.582,30.664 -66.124,38.579 l -26.386,-18.76 c -3.454,-1.784 -8.458,-3.519 -10.464,-6.948 l 2.28,-1.639 c 7.662,-0.489 19.423,-3.122 26.219,-6.714 26.301,-5.736 52.514,-25.43 69.902,-45.046 9,-3.439 18.706,-5.794 27.959,-8.529 z"
   id="path68" />
		<path
   style="fill:#e03702"
   d="m 1633.664,1410.736 1.839,1.585 c -1.211,9.228 -14.113,20.193 -21.118,25.596 -36.631,28.249 -52.948,31.245 -96.617,41.695 -3.454,-1.784 -8.458,-3.519 -10.464,-6.948 l 2.28,-1.639 c 7.662,-0.489 19.423,-3.122 26.219,-6.714 26.301,-5.736 52.514,-25.43 69.902,-45.046 9,-3.439 18.706,-5.794 27.959,-8.529 z"
   id="path69" />
		<path
   style="fill:#fd9508"
   d="m 1561.957,1140.896 -2.605,-1.434 c -1.442,-8.034 12.477,-26.529 17.248,-33.429 7.845,-11.342 19.293,-21.542 33.302,-23.998 25.636,-4.03 40.894,25.991 44.459,47.279 1.611,9.902 0.967,18.801 -0.702,28.633 -1.403,5.777 -2.513,11.949 -4.824,17.421 -1.246,-7.792 -1.19,-23.081 -9.121,-27.006 -15.433,-6.743 -55.552,2.626 -63.907,17.854 -1.25,-12.081 -4.644,-17.522 -13.85,-25.32 z"
   id="path70" />
		<path
   style="fill:#f87c08"
   d="m 1561.957,1140.896 c 12.756,-8.502 33.345,-24.802 49.468,-21.824 16.097,2.974 33.747,25.621 42.235,38.876 -1.403,5.777 -2.513,11.949 -4.824,17.421 -1.246,-7.792 -1.19,-23.081 -9.121,-27.006 -15.433,-6.743 -55.552,2.626 -63.907,17.854 -1.251,-12.082 -4.645,-17.523 -13.851,-25.321 z"
   id="path71" />
		<path
   style="fill:#f46a03"
   d="m 1257.16,1246.485 c -0.383,-16.621 6.556,-30.118 25.176,-27.906 14.184,1.583 36.024,10.553 44.991,22.029 5.546,3.593 11.21,6.782 17.039,9.896 4.512,6.83 9.043,13.577 12.871,20.826 -6.113,6.139 -8.697,9.847 -10.451,18.411 0.655,1.161 0.994,2.841 1.417,4.124 l -0.784,0.747 c -22.871,-6.766 -42.609,-9.573 -42.5,21.078 -19.587,-20.468 -36.398,-43.16 -47.759,-69.205 z"
   id="path72" />
		<path
   style="fill:#e03702"
   d="m 1327.328,1240.608 c 5.546,3.593 11.21,6.782 17.039,9.896 4.512,6.83 9.043,13.577 12.871,20.826 -6.113,6.139 -8.697,9.847 -10.451,18.411 -6.095,-10.163 -21.972,-38.473 -19.459,-49.133 z"
   id="path73" />
		<path
   style="fill:#f87c08"
   d="m 1367.616,1107.975 c 3.995,-15.791 8.376,-31.664 19.754,-43.931 17.72,-18.441 39.338,-21.69 58.159,-2.727 -12.849,21.626 -10.187,62.53 -10.09,87.155 -13.157,5.802 -17.121,11.881 -23.496,24.308 -5.275,-7.701 -8.78,-16.495 -13.185,-24.701 -8.106,-15.098 -18.94,-28.154 -31.142,-40.104 z"
   id="path74" />
		<path
   style="fill:#ce2902"
   d="m 1766.965,1401.178 c 1.094,38.35 -18.799,94.929 -59.132,106.685 l -12.26,-9.571 c -3.604,-3.289 -11.648,-9.649 -16.435,-10.454 1.199,8.259 -0.839,14.22 -6.131,20.593 -23.143,28.049 -65.169,37.77 -99.911,39.972 -4.29,-11.327 -8.798,-21.613 -16.643,-31.003 15.923,2.743 31.627,4.397 47.781,2.602 26.328,-2.929 37.356,-11.19 55.52,-28.805 4.882,-4.734 9.712,-9.543 15.584,-13.068 3.167,-1.901 7.3,-2.338 10.866,-3.027 26.557,-3.837 46.808,-29.421 42.857,-56.281 13.412,-4.673 25.656,-10.469 37.904,-17.643 z"
   id="path75" />
		<path
   style="fill:#e03702"
   d="m 1478.916,1635.321 c 12.983,-1.073 24.35,-0.692 37.198,1.695 6.746,23.094 14.939,47.175 37.221,59.649 22.023,12.283 53.696,11.856 77.415,4.765 l 1.846,8.994 c -26.02,37.298 -133.574,17.925 -168.275,-0.692 4.81,-10.898 6.821,-23.58 9.067,-35.206 2.737,-13.017 2.946,-26.228 5.528,-39.205 z"
   id="path76" />
		<path
   style="fill:#f46a03"
   d="m 1305.173,1155.574 c -5.184,-15.816 -6.183,-37.601 8.793,-48.416 6.134,-4.362 13.65,-5.768 21.016,-4.466 14.487,2.56 23.355,13.379 31.254,24.828 15.807,16.294 31.779,31.909 43.543,51.512 -4.016,15.409 -6.277,30.573 -7.806,46.402 -8.595,-12.41 -16.455,-32.3 -32.865,-35.673 -6.898,-1.417 -14.423,1.009 -20.125,4.932 -8.171,5.624 -11.128,14.2 -12.787,23.538 -18.217,-15.035 -27.12,-39.964 -31.023,-62.657 z"
   id="path77" />
		<path
   style="fill:#fd9508"
   d="m 1305.173,1155.574 c -5.184,-15.816 -6.183,-37.601 8.793,-48.416 6.134,-4.362 13.65,-5.768 21.016,-4.466 14.487,2.56 23.355,13.379 31.254,24.828 -4.22,13.874 -6.005,32.359 -14.738,44.054 -2.102,1.082 -2.907,2.012 -5.354,1.073 -9.928,-3.811 -28.91,-26.91 -40.442,-34.508 0.776,5.568 2.73,12.398 -0.529,17.435 z"
   id="path78" />
		<path
   style="fill:#f87c08"
   d="m 1733.226,1275.99 c 9.005,2.129 23.82,6.996 19.144,19.119 -5.265,11.972 -35.034,18.737 -45.792,26.99 -25.354,19.451 -0.341,43.671 -60.63,72.36 -8.696,2.454 -18.804,6.755 -27.737,7.14 l -1.256,-0.933 c 0.585,-1.501 1.073,-3.028 1.954,-4.38 6.474,-18.364 5.101,-38.916 10.616,-57.774 4.63,-15.836 11.342,-29.76 26.205,-37.957 22.254,-14.325 51.633,-21.128 77.496,-24.565 z"
   id="path79" />
		<path
   style="fill:#e03702"
   d="m 1655.729,1300.556 c 7.143,16.856 5.416,29.334 -1.321,46.292 -6.192,15.591 -21.044,40.243 -35.5,49.439 6.474,-18.364 5.101,-38.916 10.616,-57.774 4.631,-15.836 11.342,-29.76 26.205,-37.957 z"
   id="path80" />
		<path
   style="fill:#fd9508"
   d="m 1588.806,1224.996 c 5.961,0.394 12.915,1.383 18.762,0.152 23.297,-4.907 41.795,-40.431 55.665,-41.785 3.506,-0.356 8.161,1.846 8.137,5.818 0.419,10.998 -10.776,31.144 -13.702,42.932 -4.559,18.366 -2.325,38.04 -7.549,56.237 -1.696,5.909 -4.801,9.466 -8.86,13.925 -5.521,-8.953 -11.353,-14.687 -20.465,-19.839 -10.566,-3.261 -22.745,-4.23 -32.853,1.006 -12.134,6.285 -23.47,30.413 -32.87,31.614 -4.207,0.537 -9.954,-1.802 -14.014,-2.979 -2.35,0.466 -3.011,0.748 -5.329,-0.067 -0.214,-1.293 -0.292,-2.201 0.026,-3.496 6.235,-25.474 30.405,-69.919 53.052,-83.518 z"
   id="path81" />
		<path
   style="fill:#f46a03"
   d="m 1610.708,1247.215 c 6.523,-6.23 19.754,-17.56 29.162,-11.049 4.083,9.594 -6.079,17.485 -12.129,23.596 -4.107,-8.607 -7.99,-10.737 -17.033,-12.547 z"
   id="path82" />
		<path
   style="fill:#e65404"
   d="m 1541.058,1312.078 c -0.113,-5.751 6.367,-15.674 9.397,-20.648 14.274,-23.437 33.615,-37.813 60.253,-44.215 9.051,1.812 12.927,3.945 17.033,12.547 -0.848,8.441 -3.047,15.158 -6.946,22.675 -10.566,-3.261 -22.745,-4.23 -32.853,1.006 -12.134,6.285 -23.47,30.413 -32.87,31.614 -4.207,0.537 -9.955,-1.803 -14.014,-2.979 z"
   id="path83" />
		<path
   style="fill:#fd9508"
   d="m 1733.226,1275.99 c 20.936,-2.822 49.016,-7.614 67.056,6.544 8.187,6.088 6.713,13.686 0.487,20.621 -12.196,13.557 -30.228,14.063 -39.009,32.142 1.505,7.591 2.844,15.211 4.019,22.86 -7.64,14.291 -35.829,37.859 -49.876,47.869 -25.699,-11.417 -41.853,-13.301 -69.956,-11.567 60.289,-28.69 35.276,-52.909 60.63,-72.36 10.759,-8.253 40.527,-15.018 45.792,-26.99 4.675,-12.119 -10.133,-16.992 -19.143,-19.119 z"
   id="path84" />
		<path
   style="fill:#f46a03"
   d="m 1422.105,1478.993 c -27.698,-2.738 -42.694,-34.076 -46.885,-58.487 -1.189,-7.371 -1.046,-14.92 -1.982,-22.323 -0.765,-6.058 -3.033,-11.83 -3.739,-17.933 -0.43,-3.707 0.219,-5.506 2.453,-8.289 1.804,-0.453 3.381,-0.734 5.253,-0.591 7.51,0.573 15.763,3.719 22.913,6.069 32.217,10.588 50.876,25.036 72.953,50.336 9.129,12.832 16.966,26.404 24.229,40.369 -23.381,6.111 -51.022,10.676 -75.195,10.849 z"
   id="path85" />
		<path
   style="fill:#f46a03"
   d="m 1227.635,1567.889 c 5.486,-4.564 10.11,-7.42 17.688,-6.451 14.093,1.802 20.148,17.865 31.394,24.406 1.347,0.782 2.678,1.571 4.053,2.308 9.309,8.599 20.431,12.01 32.996,11.429 15.411,-0.712 29.409,-7.794 44.869,-8.23 3.69,-0.105 12.266,0.941 14.641,-1.389 6.343,28.414 20.259,53.503 53.612,44.119 5.498,-1.528 10.923,-3.472 16.374,-5.181 7.449,1.906 14.862,3.94 22.241,6.102 l 13.414,0.32 c -2.581,12.977 -2.791,26.188 -5.529,39.205 -6.097,-0.489 -16.981,8.952 -23.839,11.192 l -0.621,0.391 c -10.536,2.938 -19.87,11.806 -31.509,9.053 -24.48,-5.793 -30.91,-45.605 -42.635,-64.179 -21.95,-34.767 -70.071,-4.519 -100.69,-12.077 -22.803,-5.629 -35.45,-32.332 -46.459,-51.018 z"
   id="path86" />
		<path
   style="fill:#fd9508"
   d="m 1465.501,1635.001 13.414,0.32 c -2.581,12.977 -2.791,26.188 -5.529,39.205 -6.097,-0.489 -16.981,8.952 -23.839,11.192 5.357,-16.684 14.031,-33.21 15.954,-50.717 z"
   id="path87" />
		<path
   style="fill:#fd9508"
   d="m 1687.39,1129.277 c 0.438,-0.161 0.882,-0.307 1.315,-0.481 4.065,-1.631 9.272,-8.221 12.474,-11.383 16.319,-16.115 45.518,-45.488 71.212,-36.88 4.337,1.453 7.401,4.461 9.279,8.596 5.467,12.037 0.871,26.743 6.49,38.685 8.609,18.293 36.282,17.419 39.448,45.755 3.788,34.041 -36.776,52.508 -62.642,64.292 -27.264,-35.067 40.586,-71.562 -22.302,-107.845 -16.739,1.358 -30.067,9.371 -45.882,13.945 -5.219,1.509 -12.264,1.617 -17.033,3.915 -3.992,1.96 -6.708,9.038 -10.617,11.938 2.902,-10.168 10.745,-23.205 18.258,-30.537 z"
   id="path88" />
		<path
   style="fill:#f87c08"
   d="m 1181.278,1189.06 c 0.938,-11.302 -0.222,-26.482 10.612,-33.409 17.295,-9.68 43.478,15.043 59.966,19.493 13.329,3.598 27.354,2.861 40.741,6.71 2.38,3.479 4.008,6.086 7.74,8.2 1.99,1.128 3.567,3.367 5,5.101 l -0.039,1.85 c -7.769,1.836 -19.476,-2.016 -27.576,-2.879 -12.963,-1.381 -50.802,-2.783 -58.35,9.402 -6.093,15.312 43.522,74.659 53.684,90.897 -32.15,-14.85 -60.012,-25.193 -96.108,-22.473 -6.423,-11.575 -16.14,-20.778 -22.602,-32.182 -14.653,-26.552 4.366,-40.554 26.932,-50.71 z"
   id="path89" />
		<path
   style="fill:#f46a03"
   d="m 1495.338,1430.94 c 1.158,-19.851 6.095,-52.254 24.374,-63.278 7.949,-5.208 45.655,-21.578 54.856,-23.684 7.527,-1.723 16.111,-1.735 22.725,2.769 9.078,6.178 10.364,17.765 12.272,27.672 -7.971,32.156 -22.753,59.308 -52.088,76.876 -6.813,4.079 -15.918,7.685 -21.674,13.017 -6.796,3.592 -18.557,6.224 -26.219,6.714 -2.483,-13.71 -8.679,-27.399 -14.246,-40.086 z"
   id="path90" />
		<path
   style="fill:#fd9508"
   d="m 1384.453,1532.377 c 30.388,3.631 60.571,-6.31 90.733,-6.496 15.397,-0.172 58.78,7.158 69.432,3.339 9.823,15.713 17.286,36.369 12.795,55.067 -1.523,6.344 -4.716,11.676 -10.551,14.956 -9.213,5.344 -25.075,-9.822 -32.457,-15.007 -18.16,-13.472 -39.413,-22.4 -61.034,-11.336 -11.823,6.049 -33.71,42.227 -44.992,38.643 -7.029,-2.232 -11.885,-13.407 -14.543,-19.594 -4.55,-10.586 -16.126,-45.061 -12.152,-54.754 0.697,-1.701 1.757,-3.29 2.769,-4.818 z"
   id="path91" />
		<path
   style="fill:#f87c08"
   d="m 1669.131,1159.816 c 3.907,-2.899 6.626,-9.979 10.617,-11.938 4.769,-2.297 11.814,-2.406 17.033,-3.915 15.816,-4.574 29.143,-12.587 45.882,-13.945 62.911,36.342 -4.983,72.782 22.302,107.845 -34.618,14.49 -69.24,30.124 -102.573,47.362 0.975,-3.015 1.807,-6.209 3.108,-9.095 3.025,-15.681 5.75,-31.58 9.767,-47.039 4.604,-17.719 14.931,-37.308 14.703,-55.657 -0.023,-1.78 -1.032,-3.247 -2.361,-4.394 -5.467,-4.719 -13.818,-2.987 -20.44,-2.442 l -1.669,-1.808 4.005,-3.19 z"
   id="path92" />
		<path
   style="fill:#e03702"
   d="m 1669.505,1161.6 c 16.072,-7.569 29.336,-12.663 47.014,-6.141 9.109,3.36 17.494,9.372 21.641,18.386 4.627,10.055 3.137,21.413 -0.799,31.425 -2.676,6.808 -6.412,12.527 -11.209,18.025 -6.375,6.94 -55.617,51.752 -60.652,52.835 3.025,-15.681 5.75,-31.58 9.767,-47.039 4.604,-17.719 14.931,-37.308 14.703,-55.657 -0.023,-1.78 -1.032,-3.247 -2.361,-4.394 -5.467,-4.719 -13.818,-2.987 -20.44,-2.442 l -1.669,-1.808 z"
   id="path93" />
		<path
   style="fill:#fd9508"
   d="m 1360.452,1026.964 c 23.043,-7.219 31.714,-33.033 54.005,-40.543 5.683,-1.914 11.662,-2.026 17.039,0.942 18.138,10.009 33.348,51.079 39.503,70.201 -10.006,-0.692 -16.264,-0.337 -25.471,3.752 -18.837,-18.972 -40.445,-15.704 -58.159,2.727 -11.378,12.267 -15.758,28.14 -19.753,43.931 -11.718,-9.965 -24.96,-21.099 -40.38,-24.333 -23.557,-4.547 -33.849,13.459 -37.157,33.851 -10.897,-22.481 -19.532,-44.326 -15.068,-69.829 1.869,-10.673 5.295,-22.551 14.706,-29.021 21.21,-14.577 48.869,4.56 70.735,8.322 z"
   id="path94" />
		<path
   style="fill:#f46a03"
   d="m 1847.287,1144.691 c 9.917,-1.528 30.513,8.475 35.524,17.317 2.763,4.891 23.997,55.379 24.525,58.85 0.326,2.058 0.311,3.943 -0.077,5.979 1.943,14.335 -20.021,20.894 -17.509,36.327 5.092,26.4 57.558,50.069 28.018,76.642 -0.248,0.224 -0.481,0.441 -0.729,0.661 -3.881,8.48 -27.397,16.016 -36.198,19.42 -25.289,-5.358 -50.579,-8.242 -76.356,-9.705 8.491,-31.322 27.847,-50.021 5.601,-81.891 5.824,-1.208 10.657,-4.554 15.415,-7.966 9.674,-7.201 17.462,-16.898 22.413,-27.895 5.195,-11.692 9.731,-31.52 3.371,-43.267 2.63,-16.114 1.811,-29.195 -3.998,-44.472 z"
   id="path95" />
		<path
   style="fill:#f46a03"
   d="m 969.64,1334.286 c -4.082,-4.379 -9.203,-8.137 -13.695,-12.142 -3.577,-3.134 -6.915,-6.539 -9.978,-10.176 -12.285,-14.538 -19.972,-32.874 -21.725,-51.826 -6.479,-38.035 43.909,-27.655 62.908,-47.977 15.588,-17.508 -0.903,-33.552 -1.722,-52.143 -0.449,-10.19 3.989,-18.41 10.799,-25.694 20.969,-22.43 52.489,-28.316 80.87,-36.052 7.826,-2.133 16.867,-6.007 24.929,-6.316 -20.451,23.209 -42.311,21.365 -61.188,38.233 -15.842,14.156 -11.406,34.797 -19.294,52.537 -10.777,24.237 -30.865,23.276 -28.679,58.204 2.304,39.225 44.218,63.926 77.994,74.219 -3.578,7.474 -3.939,30.211 1.25,36.785 -9.979,1.79 -20.041,6.586 -29.364,10.447 -25.54,-6.517 -49.252,-17.051 -73.105,-28.099 z"
   id="path96" />
		<path
   style="fill:#fd9508"
   d="m 1847.287,1144.691 0.296,-1.793 c 22.422,-10.537 68.679,-16.319 91.791,-7.974 12.946,4.675 24.836,14.021 30.734,26.667 7.156,15.31 -0.435,25.599 3.229,38.616 6.473,22.945 33.42,36.173 23.19,63.198 -2.608,6.878 -6.674,13.123 -11.316,18.796 -10.889,12.466 -52.355,55.827 -68.174,58.265 0.248,-0.22 0.481,-0.438 0.729,-0.661 29.538,-26.595 -22.922,-50.225 -28.018,-76.642 -2.512,-15.432 19.453,-21.992 17.51,-36.327 0.388,-2.036 0.403,-3.921 0.077,-5.979 -0.528,-3.471 -21.762,-53.959 -24.525,-58.85 -5.029,-8.851 -25.572,-18.832 -35.523,-17.316 z"
   id="path97" />
		<path
   style="fill:#e65404"
   d="m 891.23,1317.498 c 42.458,22.088 86.343,42.511 132.125,56.862 -25.5,24.191 -34.691,53.415 -20.839,86.837 -41.106,3.954 -101.2,19.117 -131.214,49.291 -12.065,-32.161 14.919,-60.544 36.787,-80.582 3.551,-3.378 8.329,-6.892 8.462,-12.178 -6.988,-8.837 -23.159,-9.375 -32.406,-16.423 -6.741,-5.138 -9.605,-12.643 -10.714,-20.774 -2.955,-21.689 4.77,-45.777 17.799,-63.033 z"
   id="path98" />
		<path
   style="fill:#fd9508"
   d="m 1503.978,1068.793 c -2.768,-1.201 -5.056,-1.72 -6.864,-4.231 4.494,-31.762 20.735,-72.381 47.13,-91.987 7.243,-5.379 17.989,-10.593 27.265,-8.884 20.485,4.217 21.326,42.367 49.529,48.769 18.909,4.536 43.871,-14.323 57.586,7.9 13.91,25.917 -2.547,62.281 -14.27,86.408 -5.514,-13.469 -12.151,-22.493 -22.107,-33.112 -9.271,-9.132 -20.743,-11.688 -32.957,-7.121 -26.697,9.945 -41.767,39.749 -52.872,64.133 -6.555,-27.799 -27.639,-49.151 -52.44,-61.875 z"
   id="path99" />
		<path
   style="fill:#f87c08"
   d="m 1503.978,1068.793 c 0.57,-12.447 1.128,-26.857 11.378,-35.675 5.059,-4.351 10.965,-6.221 17.588,-5.583 9.413,0.908 17.571,6.476 23.434,13.672 11.094,13.619 13.413,30.247 13.309,47.238 13.04,-16.881 29.17,-28.893 50.898,-31.746 12.023,-1.96 20.857,4.71 21.663,16.958 -9.271,-9.132 -20.743,-11.688 -32.957,-7.121 -26.697,9.945 -41.767,39.749 -52.872,64.133 -6.556,-27.8 -27.64,-49.152 -52.441,-61.876 z"
   id="path100" />
		<path
   style="fill:#fd9508"
   d="m 1141.556,1505.457 c -11.263,2.775 -22.217,4.891 -33.84,5.27 -57.589,1.877 -28.845,-27.249 -44.381,-49.796 -14.001,-17.999 -36.669,-15.773 -37.185,-46.032 1.509,-44.886 68.966,-59.543 104.897,-59.193 3.5,-0.022 7.671,-0.95 10.391,1.304 -3.106,15.249 0.37,33.839 8.905,46.839 12.547,19.11 33.41,26.036 28.075,53.024 -0.64,3.24 -2.583,8.19 -1.442,11.238 -10.457,10.543 -15.22,18.621 -18.434,33.056 -5.661,1.258 -11.55,2.278 -16.986,4.29 z"
   id="path101" />
		<path
   style="fill:#f87c08"
   d="m 1131.046,1355.707 c 3.5,-0.022 7.671,-0.95 10.391,1.304 -3.106,15.249 0.37,33.839 8.905,46.839 12.547,19.11 33.41,26.036 28.075,53.024 -0.64,3.24 -2.583,8.19 -1.442,11.238 -10.457,10.543 -15.22,18.621 -18.434,33.056 -5.659,1.257 -11.549,2.277 -16.984,4.289 -12.228,-7.122 -20.525,-20.083 -25.753,-32.842 0.371,-12.059 6.13,-23.574 5.197,-35.715 -1.825,-23.752 -29.995,-21.03 -35.481,-40.717 -1.417,-5.082 -0.222,-10.088 2.383,-14.563 8.728,-14.992 27.282,-21.845 43.143,-25.913 z"
   id="path102" />
		<path
   style="fill:#f87c08"
   d="m 1097.116,1080.284 c -9.906,-22.445 -20.831,-50.23 -6.117,-73.026 23.166,-37.182 64.722,-9.969 96.395,-8.213 20.174,0.562 12.997,-36 31.315,-53.157 9.779,-9.161 23.332,-12.558 36.47,-12.123 20.584,0.683 33.981,10.852 47.442,25.194 -32.392,11.328 -47.931,33.541 -47.582,67.984 -0.155,12.433 1.299,24.884 4.318,36.947 6.75,27.984 24.064,51.401 22.411,81.135 -27.669,-34.756 -87.676,-136.208 -140.716,-96.041 -13.475,10.803 -23.485,26.498 -35.585,38.852 z"
   id="path103" />
		<path
   style="fill:#fd9508"
   d="m 1573.096,1548.402 c 34.736,-2.2 76.773,-11.925 99.911,-39.971 5.291,-6.371 7.334,-12.339 6.131,-20.594 4.787,0.806 12.831,7.165 16.435,10.454 l 12.26,9.571 3.888,3.659 c -0.995,6.922 8.727,20.575 11.387,27.752 6.698,17.706 15.316,56.399 -0.303,71.084 -7.55,7.1 -18.399,6.495 -27.971,5.857 -32.156,-2.142 -42.097,2.589 -66.628,24.016 -14.315,12.502 -31.436,35.136 -52.531,33.868 -20.427,-1.229 -34.896,-21.997 -47.425,-35.979 2.123,-1.337 5.135,-1.144 7.603,-1.277 40.116,-15.826 48.704,-49.602 37.243,-88.44 z"
   id="path104" />
		<path
   style="fill:#f46a03"
   d="m 1573.096,1548.402 c 34.736,-2.2 76.773,-11.925 99.911,-39.971 5.291,-6.371 7.334,-12.339 6.131,-20.594 4.787,0.806 12.831,7.165 16.435,10.454 1.582,3.364 3.671,5.715 6.108,8.456 -9.014,14.531 -41.813,56.576 -57.478,60.401 -7.746,1.891 -26.036,1.565 -30.438,8.573 -4.505,7.17 -5.79,16.916 -9.056,24.806 -9.158,21.393 -35.209,60.793 -63.024,48.033 -4.358,-2.605 -5.206,-7.062 -5.833,-11.718 40.117,-15.826 48.705,-49.602 37.244,-88.44 z"
   id="path105" />
		<path
   style="fill:#fd9508"
   d="m 852.633,1544.253 c -17.335,-0.265 -36.136,-2.189 -51.117,-11.629 -35.717,-22.504 3.266,-72.946 1.274,-104.295 -1.141,-17.976 -15.387,-31.158 -19.119,-48.343 -6.669,-41.628 64.46,-62.093 95.684,-67.856 4.166,1.504 7.958,3.309 11.875,5.368 -13.029,17.256 -20.755,41.344 -17.798,63.033 1.108,8.131 3.972,15.636 10.714,20.774 9.247,7.047 25.418,7.586 32.406,16.423 -0.133,5.285 -4.911,8.8 -8.463,12.177 -21.863,20.031 -48.855,48.434 -36.786,80.583 -9.858,9.882 -14.211,20.843 -18.67,33.765 z"
   id="path106" />
		<path
   style="fill:#fd9508"
   d="m 1227.635,1567.889 c 11.008,18.686 23.656,45.389 46.457,51.017 30.619,7.558 78.74,-22.69 100.69,12.077 11.726,18.574 18.155,58.386 42.635,64.179 11.639,2.754 20.972,-6.114 31.509,-9.053 -6.095,22.276 -21.594,60.305 -48.416,62.001 -22.166,0.354 -28.106,-25.733 -45.286,-34.17 -13.228,-6.495 -29.346,-2.159 -42.14,-10.42 -9.341,-6.032 -15.263,-16.832 -23.237,-24.479 -32.982,-32.337 -77.548,28.776 -110.108,-3.392 -5.363,-5.366 -8.691,-11.721 -8.536,-19.479 0.522,-26.118 37.742,-70.495 56.432,-88.281 z"
   id="path107" />
		<path
   style="fill:#fd9508"
   d="m 1068.42,1056.144 c -17.488,-26.184 -30.881,-60.579 -18.409,-91.573 17.611,-42.502 60.998,-35.501 90.776,-54.337 13.745,-8.694 20.989,-24.618 36.644,-30.806 24.417,-9.65 72.314,2.802 94.71,15.24 10.072,5.583 18.59,15.115 29.304,19.237 6.37,7.907 11.741,16.131 17.065,24.766 3.508,6.515 7.302,12.649 11.384,18.808 -9.23,-0.014 -18.108,0.318 -27.273,1.479 -13.461,-14.343 -26.858,-24.511 -47.442,-25.194 -13.138,-0.435 -26.691,2.962 -36.47,12.123 -18.318,17.157 -11.14,53.72 -31.315,53.156 -31.663,-1.755 -73.24,-28.964 -96.395,8.215 -14.712,22.802 -3.79,50.571 6.117,73.025 -9.826,-4.724 -21.966,-15.617 -28.696,-24.139 z"
   id="path108" />
		<path
   style="fill:#f46a03"
   d="m 1690.58,965.057 c 25.862,-19.789 69.116,-36.464 93.724,-6.137 12.031,15.096 12.949,34.825 12.986,53.291 28.01,-7.404 61.691,-29.442 90.955,-12.924 7.451,4.231 11.968,11.268 14.172,19.423 4.393,16.246 0.807,32.05 -7.591,46.311 -8.289,14.08 -41.519,52.577 -56.369,58.069 -8.045,-21.938 -10.307,-54.452 -33.628,-65.565 -13.11,-6.246 -28.545,-4.177 -41.743,0.682 -32.648,12.022 -57.901,42.3 -75.696,71.07 -7.513,7.331 -15.356,20.369 -18.259,30.539 l 0.374,1.784 -4.005,3.19 c 3.974,-10.977 2.744,-26.802 2.859,-38.353 24.922,-39.494 75.205,-126.11 22.221,-161.38 z"
   id="path109" />
		<path
   style="fill:#fd9508"
   d="m 1676.503,959.66 c 25.022,-49.785 37.263,-60.942 90.727,-78.711 14.701,-4.886 33.48,-10.945 48.245,-3.43 19.176,9.759 26.93,32.539 45.358,42.382 23.609,12.61 66.156,-13.83 80.949,32.993 9.36,29.642 -1.009,60.88 -14.932,87.166 -4.579,8.643 -21.266,33.297 -22.197,41.203 -9.996,17.567 -44.984,37.718 -58.145,52.501 l -2.348,1.203 c -2.99,-2.462 -4.339,-8.269 -5.701,-11.876 14.85,-5.492 48.08,-43.989 56.369,-58.069 8.398,-14.26 11.983,-30.065 7.591,-46.311 -2.204,-8.156 -6.721,-15.192 -14.172,-19.423 -29.266,-16.518 -62.941,5.521 -90.955,12.924 -0.036,-18.464 -0.955,-38.196 -12.986,-53.291 -24.613,-30.328 -67.856,-13.652 -93.724,6.138 -4.764,-1.67 -9.476,-3.324 -14.079,-5.399 z"
   id="path110" />
		<path
   style="fill:#fd9508"
   d="m 1126.622,1315.949 c -33.716,-19.455 -110.446,-28.153 -98.339,-80.483 5.043,-18.531 28.921,-18.649 42.98,-27.163 16.146,-9.779 15.926,-23.257 20.106,-39.753 5.503,-21.717 31.982,-24.418 48.518,-34.567 23.774,-13.182 12.104,-46.928 34.161,-60.461 5.084,-2.794 11.689,-3.405 17.19,-1.667 27.678,8.751 88.251,83.929 101.359,109.999 -13.388,-3.849 -27.412,-3.112 -40.741,-6.71 -16.488,-4.45 -42.671,-29.173 -59.966,-19.493 -10.838,6.932 -9.671,22.099 -10.613,33.409 -22.593,10.17 -41.576,24.165 -26.931,50.71 6.462,11.404 16.179,20.607 22.602,32.182 -26.476,4.648 -43.393,17.585 -50.326,43.997 z"
   id="path111" />
		<path
   style="fill:#fd9508"
   d="m 1144.954,1607.162 c -8.402,2.387 -16.837,6.743 -25.076,9.872 -39.584,14.373 -103.174,39.558 -142.719,16.958 -27.513,-17.846 3.767,-49.856 -0.989,-67.309 -4.868,-17.871 -48.288,-5.759 -62.346,-15.072 -11.163,-7.733 -10.243,-24.945 -2.991,-35.085 18.921,-31.36 66.364,-38.28 99.168,-44.122 2.477,3.625 4.643,7.249 6.679,11.137 14.304,20.435 32.887,43.447 58.875,48.129 3.489,0.629 8.374,0.433 11.539,1.768 l -2.299,1.138 c 4.315,4.792 31.527,10.864 38.683,13.2 35.049,11.449 27.352,34.193 57.461,39.573 l -15.704,16.497 c -4.003,0.663 -6.926,1.807 -10.518,3.589 -2.848,-1.619 -6.632,-0.628 -9.763,-0.273 z"
   id="path112" />
		<path
   style="fill:#f87c08"
   d="m 1144.954,1607.162 c -6.124,0.809 -12.815,0.196 -19.03,0.473 -21.132,0.585 -43.705,5.322 -63.915,-2.697 -5.445,-2.343 -11.639,-6.792 -13.577,-12.653 -4.665,-14.104 13.976,-27.392 19.599,-38.551 1.687,-3.351 2.409,-6.276 1.08,-9.858 -1.759,-4.745 -23.285,-10.828 -28.633,-13.386 -10.125,-4.844 -20.952,-14.113 -24.362,-25.19 -1.866,-6.06 -2.474,-16.208 0.565,-21.759 14.304,20.435 32.887,43.447 58.875,48.129 3.489,0.629 8.374,0.433 11.539,1.768 l -2.299,1.138 c 4.315,4.792 31.527,10.864 38.683,13.2 35.049,11.449 27.352,34.193 57.461,39.573 l -15.704,16.497 c -4.003,0.663 -6.926,1.807 -10.518,3.589 -2.849,-1.619 -6.633,-0.628 -9.764,-0.273 z"
   id="path113" />
		<path
   style="fill:#fd9508"
   d="m 943.89,1055.821 c 2.243,-3.514 4.335,-6.676 7.618,-9.323 37.019,-25.668 91.354,14.355 125.031,31.297 6.048,3.13 21.69,9.129 25.486,14.163 -8.062,0.309 -17.103,4.183 -24.929,6.316 -28.381,7.736 -59.901,13.622 -80.87,36.052 -6.81,7.285 -11.247,15.504 -10.799,25.694 0.82,18.591 17.311,34.635 1.721,52.143 -18.988,20.318 -69.395,9.949 -62.906,47.979 1.753,18.951 9.439,37.288 21.724,51.825 3.063,3.637 6.401,7.042 9.978,10.176 4.492,4.005 9.613,7.763 13.695,12.142 -34.255,-10.351 -127.597,-64.463 -131.45,-102.223 -3.268,-24.945 15.926,-38.945 29.052,-56.278 11.799,-15.584 9.99,-30.019 7.617,-48.194 19.45,-21.959 46.199,-15.656 63.598,-34.127 9.908,-10.52 5.659,-24.665 5.434,-37.642 z"
   id="path114" />
		<path
   style="fill:#fd9508"
   d="m 1766.965,1401.178 c 8.027,-6.372 17.806,-13.362 24.325,-21.261 4.829,-5.852 6.931,-16.786 12.592,-21.205 l 6.282,1.175 c 12.475,0.663 25.356,4.408 37.559,7.086 30.909,7.4 110.976,18.023 109.891,59.689 -0.823,10.424 -7.094,19.793 -14.949,26.356 -21.297,17.784 -41.476,22.008 -44.409,54.216 -1.586,14.47 9.783,56.129 -13.039,55.969 -11.362,-0.995 -30.697,-15.236 -47.944,-19.023 -30.054,-6.597 -68.348,-3.261 -95.101,-11.482 -10.946,-3.364 -19.043,-8.893 -26.546,-17.459 -1.933,-1.85 -5.842,-5.549 -7.794,-7.376 40.331,-11.765 60.219,-68.297 59.133,-106.685 z"
   id="path115" />
		<path
   style="fill:#f87c08"
   d="m 1766.965,1401.178 c 8.027,-6.372 17.806,-13.362 24.325,-21.261 4.829,-5.852 6.931,-16.786 12.592,-21.205 l 6.282,1.175 c 19.383,10.128 43.868,16.606 51.832,39.348 -14.562,44.922 -62.344,44.555 -73.079,80.513 -3.409,11.415 -3,23.434 -2.895,35.216 -23.465,0.254 -46.93,0.347 -70.395,0.276 -1.933,-1.85 -5.842,-5.549 -7.794,-7.376 40.33,-11.766 60.218,-68.298 59.132,-106.686 z"
   id="path116" />
		<path
   style="fill:#fd9508"
   d="m 1352.196,960.023 c -19.812,-44.742 -46.2,-96.246 15.261,-119.898 13.965,-5.903 29.776,-10.739 42.7,-18.593 10.752,-6.534 20.311,-16.995 31.861,-21.812 4.461,-1.86 8.612,-1.938 13.095,-0.034 21.88,9.292 26.492,34.091 57.742,22.643 15.348,-5.623 37.123,-29.41 54.087,-22.391 9.511,3.935 16.17,13.297 25.263,18.108 31.448,16.642 78.18,25.577 92.446,62.977 4.486,11.761 3.884,21.728 -1.264,33.188 -3.131,6.973 -8.593,14.752 -9.95,22.25 -0.99,5.472 0.138,11.193 -1.413,16.652 -0.01,2.023 -0.115,2.915 -1.225,4.621 -17.657,4.382 -53.516,-14.118 -70.662,-20.125 -50.859,-21.943 -79.993,10.526 -96.538,55.985 -3.286,9.347 -16.185,68.231 -16.202,68.261 -3.078,-0.925 -5.785,-1.558 -8.185,-3.843 -5.501,-34.641 -11.237,-63.167 -30.88,-92.923 -20.774,-32.635 -50.457,-50.723 -81.946,-18.489 -4.593,4.608 -9.091,9.371 -14.19,13.423 z"
   id="path117" />
		<path
   style="fill:#f46a03"
   d="m 1600.137,937.611 c 10.124,-15.311 36.377,-48.411 57.235,-34.381 8.783,6.489 13.085,19.948 14.254,30.356 0.73,6.493 0.042,13.037 0.397,19.529 -0.01,2.023 -0.115,2.915 -1.225,4.621 -17.655,4.381 -53.515,-14.118 -70.661,-20.125 z"
   id="path118" />
		<path
   style="fill:#f46a03"
   d="m 1366.386,946.601 c -3.917,-22.285 2.561,-50.744 24.351,-61.532 9.134,-4.258 18.666,-3.365 27.869,0.197 35.548,13.756 61.011,59.888 75.516,92.896 l -0.99,-1.302 0.817,-0.399 c -2.016,-7.08 -3.95,-14.658 -5.585,-21.857 -3.597,-15.839 -0.646,-34.368 8.134,-48.042 7.507,-11.621 19.421,-20.269 32.796,-23.805 14.047,-3.89 28.937,-0.928 40.973,7.143 16.59,11.067 21.98,27.532 25.683,46.152 -47.634,-19.694 -77.82,15.676 -92.35,57.542 -3.286,9.347 -16.185,68.231 -16.203,68.26 -3.078,-0.925 -5.785,-1.558 -8.185,-3.843 -5.501,-34.641 -11.237,-63.167 -30.88,-92.923 -20.774,-32.633 -50.457,-50.721 -81.946,-18.487 z"
   id="path119" />
		<path
   style="fill:#f46a03"
   d="m 1741.344,1541.392 c 40.266,13.64 82.048,14.821 120.031,36.304 13.287,2.524 23.221,7.373 37.191,7.535 -3.679,1.257 -7.575,1.063 -11.424,1.141 13.535,7.314 26.403,15.522 39.691,23.257 5.371,3.283 12.946,7.097 17.028,11.94 6.706,6.359 21.266,17.433 24.51,25.55 14.544,14.589 23.485,46.253 23.408,66.12 0.238,38.096 -29.094,70.113 -63.114,83.732 -1.816,0.905 -3.57,1.85 -5.526,2.395 -3.089,1.563 -6.799,3.005 -9.376,5.329 l -8.211,8.281 c -8.861,7.974 -18.308,17.49 -29.198,22.532 -33.761,16.257 -52.25,-9.979 -76.705,-8.958 -22.781,0.952 -25.499,18.805 -58.615,6.991 -38.095,-13.588 -61.751,-53.074 -78.155,-87.692 -9.439,-14.534 -14.847,-32.83 -23.315,-48.223 l 5.869,-2.653 c 12.233,-6.144 23.041,-15.577 35.683,-20.775 21.11,-8.678 45.487,-9.315 64.592,-22.622 12.166,-8.475 20.503,-20.413 22.888,-35.174 4.682,-28.991 -11.079,-52.757 -27.252,-75.01 z"
   id="path120" />
		<path
   style="fill:#fd9508"
   d="m 1861.375,1577.696 c 13.287,2.524 23.221,7.373 37.191,7.535 -3.679,1.257 -7.575,1.063 -11.424,1.141 13.535,7.314 26.403,15.522 39.691,23.257 5.371,3.283 12.946,7.097 17.028,11.94 6.706,6.359 21.266,17.433 24.51,25.55 14.544,14.589 23.485,46.253 23.408,66.12 0.238,38.096 -29.094,70.113 -63.114,83.732 -1.816,0.905 -3.57,1.85 -5.526,2.395 -3.089,1.563 -6.799,3.005 -9.376,5.329 l -8.211,8.281 c -8.861,7.974 -18.308,17.49 -29.198,22.532 -33.761,16.257 -52.25,-9.979 -76.705,-8.958 -22.781,0.952 -25.499,18.805 -58.615,6.991 -38.095,-13.588 -61.751,-53.074 -78.155,-87.692 2.837,0.393 3.615,0.402 5.855,2.293 5.419,4.573 10.347,12.151 14.939,17.667 8.564,10.288 17.401,20.448 26.863,29.921 7.412,7.421 20.168,19.335 31.599,18.819 8.879,-0.401 14.537,-10.448 19.973,-16.33 16.221,-17.545 40.381,-2.752 59.513,1.718 8.385,1.96 15.917,2.027 24.442,1.658 17.627,-9.289 22.548,-30.671 37.247,-43.562 23.501,-20.626 60.133,-19.741 76.898,-49.581 25.59,-50.086 -41.256,-93.996 -78.838,-114.819 -6.382,-5.698 -13.165,-10.797 -19.995,-15.937 z"
   id="path121" />
		<path
   style="fill:#e03702"
   d="m 1741.344,1541.392 c 40.266,13.64 82.048,14.821 120.031,36.304 6.83,5.139 13.613,10.239 19.993,15.938 3.244,6.937 5.309,14.035 6.659,21.571 -7.575,22.527 -20.396,35.388 -41.603,45.934 -14.773,7.347 -46.066,12.977 -51.786,29.739 -9.115,26.716 -5.27,52.601 -37.046,68.328 -49.414,25.73 -85.052,-31.714 -112.16,-64.233 12.233,-6.144 23.041,-15.577 35.683,-20.775 21.11,-8.678 45.487,-9.315 64.592,-22.622 12.166,-8.475 20.503,-20.413 22.888,-35.174 4.683,-28.991 -11.078,-52.757 -27.251,-75.01 z"
   id="path122" />
	</g>
</g>
</svg>
